<svg xmlns="http://www.w3.org/2000/svg" xmlns:xlink="http://www.w3.org/1999/xlink" version="1.1" id="Layer_1" x="0px" y="0px" width="100%" viewBox="0 0 1024 1024" enable-background="new 0 0 1024 1024" xml:space="preserve">
<path fill="#000000" opacity="1.000000" stroke="none" d=" M493.000000,1025.000000   C328.666656,1025.000000 164.833328,1025.000000 1.000000,1025.000000   C1.000000,683.666687 1.000000,342.333344 1.000000,1.000000   C342.333344,1.000000 683.666687,1.000000 1025.000000,1.000000   C1025.000000,342.333344 1025.000000,683.666687 1025.000000,1025.000000   C847.833313,1025.000000 670.666687,1025.000000 493.000000,1025.000000  M187.245316,734.369141   C187.245316,734.369141 187.557892,734.661804 187.557892,734.661804   C187.557892,734.661804 187.969086,734.542236 188.539963,734.794922   C189.646194,734.890564 190.752426,734.986206 192.101944,735.810242   C194.411072,735.904175 196.720184,735.998108 199.872192,736.155090   C202.555618,736.252380 205.239044,736.349670 208.458359,736.690430   C208.987564,736.516235 209.516769,736.342102 210.773422,736.200562   C211.501343,736.187866 212.229248,736.175171 213.406586,736.536316   C213.963211,736.490723 214.519852,736.445129 215.712585,736.544189   C216.796478,736.403198 217.880386,736.262268 219.659439,736.558899   C222.647308,736.674011 225.635132,736.888611 228.623047,736.889954   C356.211731,736.947998 483.800415,736.994385 611.389099,737.024658   C660.692505,737.036316 709.996399,737.093506 759.298767,736.861755   C764.329407,736.838074 769.937805,736.330017 773.862427,730.911194   C777.901367,729.562561 783.112244,719.575134 782.504517,714.751709   C781.261902,704.887634 775.421814,697.477661 769.817749,689.817139   C765.899170,684.460510 762.595276,678.648804 759.102356,672.987549   C754.701233,665.854492 750.561523,658.553894 745.981567,651.539368   C742.177795,645.713623 737.640686,640.363159 733.894775,634.503967   C728.616882,626.248352 723.880798,617.648254 718.703430,609.325867   C714.479919,602.536682 709.920654,595.957153 705.565674,589.248657   C703.244263,585.672791 701.154602,581.943054 698.762268,578.417236   C691.471069,567.671448 683.942688,557.084106 676.781860,546.253174   C671.766968,538.667969 667.383484,530.665771 662.379456,523.072937   C658.443237,517.100464 653.796204,511.598267 649.822083,505.648590   C646.061646,500.018921 642.930359,493.971710 639.232422,488.297089   C631.784058,476.867371 624.063721,465.615082 616.599548,454.195526   C611.087463,445.762604 605.750732,437.213348 600.437073,428.653137   C597.088684,423.258972 594.106628,417.631744 590.639648,412.318237   C585.260803,404.074615 579.494995,396.083649 574.106445,387.846039   C569.403320,380.656311 565.092957,373.210327 560.424988,365.996704   C556.662598,360.182526 552.546021,354.598236 548.748169,348.806000   C547.169922,346.398895 546.236938,343.563385 544.622314,341.186401   C538.763672,332.561371 532.526184,324.187561 526.840820,315.452637   C521.344727,307.008484 516.508118,298.137299 511.095673,289.635895   C505.976562,281.595276 500.521912,273.766571 495.139893,265.895905   C493.036346,262.819641 491.148773,259.391846 488.388031,257.029785   C485.938354,254.933899 482.361359,254.198349 479.379486,252.671844   C474.860901,250.358612 470.702942,250.464157 466.159119,253.039856   C462.349396,255.199402 460.291321,258.334351 458.106689,261.899109   C453.769226,268.976898 448.628021,275.557220 444.138855,282.548553   C440.936035,287.536591 438.291565,292.880798 435.328156,298.025848   C433.488098,301.220490 431.599335,304.393250 429.588684,307.482269   C425.411652,313.899506 421.028290,320.184570 416.941040,326.657349   C413.757568,331.698792 410.958344,336.981201 407.866730,342.082855   C405.478149,346.024445 402.958618,349.890381 400.393158,353.720184   C397.206390,358.477600 393.722198,363.045227 390.708557,367.906891   C386.053284,375.416870 381.781769,383.163940 377.171021,390.702515   C373.337585,396.970123 369.232971,403.071442 365.282043,409.267822   C363.302582,412.372314 361.523712,415.611633 359.429321,418.634247   C356.491852,422.873657 353.110229,426.818878 350.349548,431.163696   C347.219513,436.089844 344.797638,441.467041 341.651489,446.381531   C336.608551,454.258728 331.102783,461.838654 326.014008,469.687744   C320.267883,478.550720 314.770477,487.574860 309.157410,496.524231   C302.776093,506.698547 296.365234,516.854431 290.005463,527.042236   C280.982513,541.496277 272.024719,555.991150 262.972748,570.427002   C260.335297,574.633118 257.413208,578.659790 254.726624,582.836365   C251.274734,588.202576 247.889481,593.612915 244.548355,599.048950   C241.281555,604.364136 238.200394,609.795166 234.862854,615.064514   C231.876038,619.780334 228.512558,624.259277 225.568542,628.999939   C222.415863,634.076538 219.756836,639.464172 216.526306,644.487000   C211.849152,651.758911 206.793365,658.786255 202.014969,665.994690   C199.443939,669.873291 197.048004,673.873047 194.694443,677.889282   C192.271698,682.023560 190.100555,686.306946 187.631668,690.412170   C184.148514,696.204163 179.955460,701.636658 177.070969,707.700928   C174.492523,713.121887 174.613144,719.103821 178.480133,724.309570   C180.880905,727.541443 183.484940,730.622437 186.514038,733.705688   C186.684906,733.675598 186.855759,733.645569 187.111282,733.788757   C187.111282,733.788757 187.232285,733.938843 187.245316,734.369141  z"/>
<path fill="#4F5656" opacity="1.000000" stroke="none" d=" M218.964279,736.121338   C217.880386,736.262268 216.796478,736.403198 215.295715,736.250977   C214.238297,736.026001 213.597733,736.094238 212.957169,736.162476   C212.229248,736.175171 211.501343,736.187866 210.272049,735.959778   C209.154602,735.961670 208.538544,736.204346 207.922485,736.446899   C205.239044,736.349670 202.555618,736.252380 199.168945,735.837036   C196.263336,735.373230 194.061005,735.227600 191.858658,735.081909   C190.752426,734.986206 189.646194,734.890564 188.146484,734.553345   C187.591949,734.169983 187.418365,734.045654 187.232285,733.938843   C187.232285,733.938843 187.111282,733.788757 186.946365,733.605713   C186.436691,733.313843 186.175446,733.429993 185.997742,733.771118   C183.484940,730.622437 180.880905,727.541443 178.480133,724.309570   C174.613144,719.103821 174.492523,713.121887 177.070969,707.700928   C179.955460,701.636658 184.148514,696.204163 187.631668,690.412170   C190.100555,686.306946 192.271698,682.023560 194.694443,677.889282   C197.048004,673.873047 199.443939,669.873291 202.014969,665.994690   C206.793365,658.786255 211.849152,651.758911 216.526306,644.487000   C219.756836,639.464172 222.415863,634.076538 225.568542,628.999939   C228.512558,624.259277 231.876038,619.780334 234.862854,615.064514   C238.200394,609.795166 241.281555,604.364136 244.548355,599.048950   C247.889481,593.612915 251.274734,588.202576 254.726624,582.836365   C257.413208,578.659790 260.335297,574.633118 262.972748,570.427002   C272.024719,555.991150 280.982513,541.496277 290.005463,527.042236   C296.365234,516.854431 302.776093,506.698547 309.157410,496.524231   C314.770477,487.574860 320.267883,478.550720 326.014008,469.687744   C331.102783,461.838654 336.608551,454.258728 341.651489,446.381531   C344.797638,441.467041 347.219513,436.089844 350.349548,431.163696   C353.110229,426.818878 356.491852,422.873657 359.429321,418.634247   C361.523712,415.611633 363.302582,412.372314 365.282043,409.267822   C369.232971,403.071442 373.337585,396.970123 377.171021,390.702515   C381.781769,383.163940 386.053284,375.416870 390.708557,367.906891   C393.722198,363.045227 397.206390,358.477600 400.393158,353.720184   C402.958618,349.890381 405.478149,346.024445 407.866730,342.082855   C410.958344,336.981201 413.757568,331.698792 416.941040,326.657349   C421.028290,320.184570 425.411652,313.899506 429.588684,307.482269   C431.599335,304.393250 433.488098,301.220490 435.328156,298.025848   C438.291565,292.880798 440.936035,287.536591 444.138855,282.548553   C448.628021,275.557220 453.769226,268.976898 458.106689,261.899109   C460.291321,258.334351 462.349396,255.199402 466.159119,253.039856   C470.702942,250.464157 474.860901,250.358612 479.379486,252.671844   C482.361359,254.198349 485.938354,254.933899 488.388031,257.029785   C491.148773,259.391846 493.036346,262.819641 495.139893,265.895905   C500.521912,273.766571 505.976562,281.595276 511.095673,289.635895   C516.508118,298.137299 521.344727,307.008484 526.840820,315.452637   C532.526184,324.187561 538.763672,332.561371 544.622314,341.186401   C546.236938,343.563385 547.169922,346.398895 548.748169,348.806000   C552.546021,354.598236 556.662598,360.182526 560.424988,365.996704   C565.092957,373.210327 569.403320,380.656311 574.106445,387.846039   C579.494995,396.083649 585.260803,404.074615 590.639648,412.318237   C594.106628,417.631744 597.088684,423.258972 600.437073,428.653137   C605.750732,437.213348 611.087463,445.762604 616.599548,454.195526   C624.063721,465.615082 631.784058,476.867371 639.232422,488.297089   C642.930359,493.971710 646.061646,500.018921 649.822083,505.648590   C653.796204,511.598267 658.443237,517.100464 662.379456,523.072937   C667.383484,530.665771 671.766968,538.667969 676.781860,546.253174   C683.942688,557.084106 691.471069,567.671448 698.762268,578.417236   C701.154602,581.943054 703.244263,585.672791 705.565674,589.248657   C709.920654,595.957153 714.479919,602.536682 718.703430,609.325867   C723.880798,617.648254 728.616882,626.248352 733.894775,634.503967   C737.640686,640.363159 742.177795,645.713623 745.981567,651.539368   C750.561523,658.553894 754.701233,665.854492 759.102356,672.987549   C762.595276,678.648804 765.899170,684.460510 769.817749,689.817139   C775.421814,697.477661 781.261902,704.887634 782.504517,714.751709   C783.112244,719.575134 777.901367,729.562561 773.146973,731.090820   C766.993958,734.792053 760.948181,735.047668 754.683838,735.045471   C580.468018,734.984009 406.252167,734.994019 232.036346,735.053589   C227.678879,735.055054 223.321640,735.749878 218.964279,736.121338  M732.767090,672.112976   C732.767090,672.112976 732.876831,672.245117 732.759949,671.687805   C732.468933,671.470276 732.177979,671.252686 731.965393,671.047852   C731.965393,671.047852 731.942078,671.123840 731.913330,670.486633   C731.548096,670.043335 731.182861,669.600037 730.778687,668.635437   C730.524414,668.421326 730.270203,668.207214 729.955811,667.379395   C729.581482,666.966125 729.207153,666.552856 728.772644,665.630127   C728.526855,665.411560 728.281067,665.192993 727.924561,664.324036   C727.479126,663.912598 727.033691,663.501099 726.203369,662.918884   C726.002380,662.694031 725.923401,662.432373 725.918335,661.465454   C725.522461,661.001465 725.126587,660.537415 724.877930,660.081848   C724.877930,660.081848 724.840698,660.224548 724.913696,659.532715   C724.478638,659.089050 724.043640,658.645386 723.759033,658.093567   C723.759033,658.093567 723.841980,658.259216 723.708801,657.687439   C723.386047,657.487427 723.063293,657.287415 722.906555,657.051208   C722.906555,657.051208 722.923828,657.220276 722.774841,656.684631   C722.497253,656.462952 722.219727,656.241272 722.004883,656.022339   C722.004883,656.022339 721.970276,656.074646 721.899231,655.422607   C721.514648,654.972778 721.130127,654.522888 720.882751,654.079346   C720.882751,654.079346 720.848572,654.212402 720.965576,653.452209   C720.243958,652.672424 719.522278,651.892578 718.890991,651.097412   C718.890991,651.097412 718.877441,651.188049 718.976990,650.434753   C718.263245,649.652649 717.549500,648.870544 716.918579,648.081787   C716.918579,648.081787 716.902405,648.163208 716.978943,647.409729   C716.263245,646.621948 715.547546,645.834167 714.508423,644.981384   C714.508423,644.981384 714.182495,644.930725 713.970215,644.335815   C713.345947,643.512756 712.721619,642.689758 712.044983,641.960693   C712.044983,641.960693 712.139648,641.909729 711.953552,641.310913   C711.349121,640.482483 710.744629,639.654053 710.087769,638.937256   C710.087769,638.937256 710.190796,638.869507 710.060120,638.151367   C706.666138,633.115967 703.272156,628.080505 699.725708,622.383667   C690.504272,608.246399 681.282776,594.109070 672.541504,579.649292   C671.996765,579.114624 671.452026,578.579956 670.983398,578.036987   C670.983398,578.036987 670.949036,578.105408 670.976257,577.368042   C670.286072,576.593628 669.595886,575.819153 668.981750,575.036316   C668.981750,575.036316 668.948364,575.105225 668.982727,574.368530   C668.291260,573.593506 667.599792,572.818420 666.984009,572.033813   C666.984009,572.033813 666.949585,572.101929 666.992065,571.356201   C666.184692,570.361145 665.377380,569.366028 664.519897,568.332642   C664.519897,568.332642 664.460022,568.312561 664.772156,567.659058   C664.151672,567.120056 663.531128,566.580994 662.985718,566.034424   C662.985718,566.034424 662.951294,566.101624 662.975830,565.365540   C662.286438,564.591614 661.596985,563.817749 660.983398,563.036255   C660.983398,563.036255 660.949341,563.104370 660.977905,562.364502   C660.284668,561.592896 659.591492,560.821350 658.974854,560.042358   C658.974854,560.042358 658.947937,560.114441 658.919556,559.444824   C658.514709,558.994934 658.109863,558.545105 657.853333,558.098145   C657.853333,558.098145 657.815857,558.241638 657.912109,557.543701   C657.467896,557.117737 657.023743,556.691772 656.694824,556.040344   C656.694824,556.040344 656.925720,556.144348 656.700134,555.597412   C656.350708,555.428162 656.001282,555.258972 655.245972,554.937317   C655.018127,554.721130 654.923889,554.457275 654.922791,553.473633   C654.519958,553.010376 654.117065,552.547180 653.892517,552.050110   C653.892517,552.050110 653.905518,552.231140 653.768372,551.681824   C653.478210,551.465149 653.188049,551.248413 652.972534,551.037720   C652.972534,551.037720 652.946533,551.107910 652.979553,550.356628   C652.262451,549.551086 651.545349,548.745483 650.256531,547.588745   C640.120789,532.052612 629.985107,516.516541 619.681519,500.326691   C616.114929,494.520386 612.548340,488.714050 609.026550,482.196686   C608.304443,481.489746 607.582336,480.782806 606.942871,480.071350   C606.942871,480.071350 606.914185,480.148987 606.979919,479.403412   C606.282776,478.621094 605.585571,477.838806 604.967468,477.054810   C604.967468,477.054810 604.934937,477.126862 604.966248,476.365021   C604.132568,475.385742 603.298828,474.406494 602.993530,473.231140   C602.816833,473.291260 602.640076,473.351379 602.751282,472.723816   C602.131775,472.167358 601.512329,471.610931 600.971680,471.051270   C600.971680,471.051270 600.937439,471.122345 600.973450,470.362213   C600.142212,469.367523 599.310913,468.372864 598.594971,467.240143   C598.594971,467.240143 598.694336,467.390015 598.684204,466.781952   C598.374634,466.552704 598.065063,466.323456 597.881470,466.095947   C597.881470,466.095947 597.849854,466.217926 597.965515,465.453949   C597.231262,464.686066 596.497009,463.918152 595.864014,463.134247   C595.864014,463.134247 595.842102,463.234375 595.891968,462.528931   C595.422913,462.119354 594.953857,461.709747 594.657410,461.184570   C594.657410,461.184570 594.722046,461.381927 594.688904,460.778351   C594.383301,460.546875 594.077698,460.315399 593.894470,460.088837   C593.894470,460.088837 593.862549,460.207062 593.970642,459.423553   C593.206604,458.573090 592.442627,457.722626 591.139038,456.528778   C588.565491,452.300934 586.082031,448.015045 583.401184,443.856354   C575.891479,432.206573 568.253784,420.639191 560.752502,408.984009   C550.817200,393.546997 541.051453,378.000244 531.044250,362.610291   C524.107605,351.942474 516.824768,341.500366 509.812866,330.880615   C504.620667,323.016968 499.615509,315.029785 494.445404,306.325623   C491.811249,303.208923 489.177094,300.092255 485.953033,297.443298   C485.649841,298.663391 485.082153,299.883331 485.081329,301.103638   C485.032928,371.320923 485.022095,441.538208 485.093231,511.755463   C485.094666,513.179138 486.105103,514.601807 487.230072,516.418335   C490.544037,519.275452 493.857971,522.132568 497.940674,525.322388   C498.091949,524.874451 498.243225,524.426514 497.639984,523.913025   C498.097992,524.588379 498.556000,525.263733 499.144470,526.638306   C503.102203,529.395020 507.059967,532.151794 511.344086,535.478943   C511.966766,535.603516 512.589478,535.728088 513.112061,535.856934   C513.112061,535.856934 513.142517,535.761475 513.114319,536.515686   C514.146790,536.960754 515.179199,537.405762 516.085083,537.879578   C516.085083,537.879578 516.085510,537.749817 516.258240,538.312195   C516.595459,538.478027 516.932678,538.643921 517.123596,538.736755   C517.123596,538.736755 517.226135,538.609375 517.365784,539.281860   C517.981445,539.474548 518.597168,539.667175 519.073181,539.897888   C519.073181,539.897888 519.059570,539.753784 519.288208,540.367249   C519.888306,540.570984 520.488342,540.774780 521.534119,541.020935   C521.854431,541.123535 522.037720,541.341309 522.252258,542.244263   C522.564941,542.461121 522.877686,542.677979 523.059692,542.743225   C523.059692,542.743225 523.215942,542.618103 523.366333,543.291077   C523.984802,543.475403 524.603271,543.659729 525.121094,543.849060   C525.121094,543.849060 525.152832,543.753418 525.111206,544.505066   C526.136963,544.962891 527.162659,545.420715 528.072571,545.905640   C528.072571,545.905640 528.068909,545.786743 528.250854,546.343628   C528.591736,546.503906 528.932556,546.664124 529.107849,546.783447   C529.107849,546.783447 529.183899,546.630798 529.347473,547.291809   C529.958374,547.492554 530.569336,547.693298 531.091919,547.904175   C531.091919,547.904175 531.108093,547.816650 531.039062,548.421753   C531.690491,548.619446 532.341858,548.817078 533.655701,549.198364   C539.489136,553.460693 545.261047,557.811096 551.182983,561.946716   C553.975647,563.896912 557.139099,565.309692 559.983826,567.193542   C563.031494,569.211853 565.901794,571.497864 568.967163,574.439758   C570.020508,574.937927 571.073914,575.436096 572.051392,575.958374   C572.051392,575.958374 572.059387,575.879150 572.083618,576.611389   C573.101440,577.062683 574.119263,577.513977 575.560242,578.001099   C575.868835,578.090515 576.044556,578.294373 576.305359,579.242920   C576.897339,579.488770 577.489258,579.734619 578.523804,580.019226   C578.845520,580.110046 579.033752,580.320435 579.254883,581.222229   C579.560120,581.453491 579.865295,581.684814 580.039368,581.746277   C580.039368,581.746277 580.209961,581.616150 580.363770,582.292053   C580.987122,582.470642 581.610413,582.649231 582.100891,582.856201   C582.100891,582.856201 582.107117,582.720520 582.261719,583.301147   C582.606995,583.464294 582.952271,583.627441 583.159546,583.730835   C583.159546,583.730835 583.255920,583.615356 583.313782,584.359558   C584.575623,584.890320 585.837463,585.421082 587.031677,585.985535   C587.031677,585.985535 587.041748,585.910645 587.080078,586.633911   C588.084167,587.074097 589.088196,587.514343 590.024841,587.987000   C590.024841,587.987000 590.039429,587.913574 590.094788,588.633972   C591.096497,589.073059 592.098267,589.512207 593.031555,589.978333   C593.031555,589.978333 593.028442,589.904785 593.244507,590.417603   C593.568481,590.587219 593.892517,590.756897 594.036194,590.914062   C594.036194,590.914062 594.064758,590.735657 594.306152,591.350281   C594.910461,591.557129 595.514771,591.763916 596.556091,592.003906   C596.871521,592.103210 597.049438,592.316956 597.253845,593.224731   C597.565796,593.450745 597.877686,593.676758 598.049316,593.771301   C598.049316,593.771301 598.187866,593.638062 598.359192,594.298218   C598.971924,594.490540 599.584595,594.682800 600.074219,594.905396   C600.074219,594.905396 600.067505,594.778809 600.254700,595.333740   C600.591064,595.505249 600.927490,595.676697 601.088013,595.798950   C601.088013,595.798950 601.167542,595.634583 601.335876,596.298523   C601.950928,596.496155 602.566040,596.693787 603.094055,596.900696   C603.094055,596.900696 603.111816,596.814941 603.031860,597.418213   C603.682251,597.624756 604.332642,597.831299 605.636108,598.229919   C608.415955,600.483582 611.075012,602.910889 614.004944,604.948669   C618.029236,607.747559 622.370422,610.092468 626.378540,612.912292   C636.804871,620.247375 647.079529,627.797974 657.499573,635.142212   C665.598328,640.850403 673.824768,646.377319 682.315491,652.532227   C682.920898,652.664795 683.526367,652.797424 684.054382,652.952332   C684.054382,652.952332 684.064392,652.872375 684.078064,653.601501   C685.084961,654.051636 686.091919,654.501770 687.031799,654.986877   C687.031799,654.986877 687.041992,654.911926 687.074402,655.637695   C688.084656,656.082947 689.094910,656.528259 690.549561,657.028992   C690.864563,657.144348 691.040527,657.368774 691.256287,658.262146   C691.569275,658.473938 691.882263,658.685791 692.050232,658.766907   C692.050232,658.766907 692.188904,658.629578 692.356873,659.293274   C692.973511,659.484680 693.590088,659.676025 694.079163,659.894226   C694.079163,659.894226 694.078369,659.763855 694.254822,660.329468   C694.597107,660.493896 694.939392,660.658325 695.111877,660.792114   C695.111877,660.792114 695.180054,660.633667 695.342590,661.298584   C695.957703,661.494080 696.572815,661.689575 697.093140,661.893433   C697.093140,661.893433 697.112610,661.800293 697.101440,662.547729   C698.132751,662.987854 699.164124,663.427979 700.104858,663.880981   C700.104858,663.880981 700.123108,663.791321 700.093933,664.542114   C701.125916,664.986694 702.157898,665.431213 703.098450,665.888306   C703.098450,665.888306 703.115295,665.797546 703.098206,666.544250   C704.124146,666.992981 705.150085,667.441772 706.088623,667.903870   C706.088623,667.903870 706.100952,667.816345 706.095459,668.560120   C707.123352,669.002625 708.151245,669.445129 709.090820,669.901123   C709.090820,669.901123 709.103882,669.812744 709.095093,670.554993   C710.116882,671.004700 711.138672,671.454346 712.077942,671.923401   C712.077942,671.923401 712.091797,671.839783 712.022034,672.440796   C712.674866,672.641663 713.327637,672.842529 714.401062,673.023315   C714.401062,673.023315 714.819641,673.069214 715.164124,673.619141   C716.077148,674.130005 716.990112,674.640869 717.953613,675.055725   C717.953613,675.055725 717.857605,675.106384 718.180115,675.642334   C719.082581,676.151001 719.984985,676.659668 720.948120,677.066345   C720.948120,677.066345 720.843567,677.122375 721.230042,677.694885   C724.463318,679.834473 727.696533,681.974121 730.970398,684.023987   C730.970398,684.023987 730.888245,684.078430 731.224487,684.603516   C732.122620,685.112000 733.020813,685.620544 733.965637,686.036804   C733.965637,686.036804 733.876343,686.088928 734.241699,686.658936   C738.010071,689.168579 741.778442,691.678223 745.546814,694.187866   C745.981934,693.824585 746.417053,693.461304 746.852234,693.098022   C742.934021,687.687561 739.015808,682.277161 735.043701,676.959778   C735.043701,676.959778 735.139221,676.910339 734.949585,676.313599   C734.336243,675.493774 733.722961,674.673889 733.059631,673.952393   C733.059631,673.952393 733.156067,673.898865 733.055725,673.448242   C733.055725,673.448242 733.040955,672.986938 733.394836,672.765198   C733.146973,672.590027 732.899048,672.414917 732.767090,672.112976  M631.001465,644.966187   C631.001465,644.966187 631.069336,644.975159 630.949829,644.440308   C630.638123,644.261475 630.326355,644.082642 630.021423,643.976318   C630.021423,643.976318 630.090393,643.953064 629.721680,643.449646   C628.827026,642.933289 627.932312,642.416992 627.017456,641.971436   C627.017456,641.971436 627.090149,641.960266 626.725098,641.455688   C626.158997,641.280090 625.592834,641.104553 625.004272,640.992615   C625.004272,640.992615 625.064941,640.963318 625.047058,640.384827   C624.704712,640.226624 624.362427,640.068420 624.015442,639.981934   C624.015442,639.981934 624.080261,639.950684 623.765503,639.403259   C623.185791,639.244995 622.606018,639.086731 622.006531,638.993469   C622.006531,638.993469 622.066650,638.961975 622.066223,638.375916   C621.719238,638.223083 621.372192,638.070251 621.017273,637.991272   C621.017273,637.991272 621.073120,637.942200 620.793152,637.378235   C619.881958,636.878967 618.970703,636.379700 618.007019,635.930908   C618.007019,635.930908 618.077759,635.948486 617.774292,635.387512   C617.191406,635.233459 616.608582,635.079468 615.998291,634.984741   C615.998291,634.984741 616.061890,634.969788 616.048706,634.360535   C615.715454,634.130432 615.382202,633.900269 614.835022,633.295898   C614.611877,633.090698 614.348694,632.989319 613.609436,632.562439   C613.089355,632.240051 612.569275,631.917664 611.818542,631.254700   C611.595276,631.074524 611.340271,630.986206 610.625793,630.577454   C610.086914,630.355591 609.548035,630.133667 609.016968,629.982361   C609.016968,629.982361 609.078430,629.946716 608.726135,629.361145   C605.495117,626.942749 602.264038,624.524292 598.334839,621.884216   C597.748474,621.322937 597.240112,620.634460 596.563782,620.220032   C589.803467,616.077576 582.829529,612.253418 576.286194,607.795837   C569.321106,603.050964 562.920166,597.479858 555.972839,592.706360   C548.259216,587.406433 540.067749,582.803406 532.334229,577.530457   C521.139160,569.897278 510.208466,561.877686 499.087219,554.134644   C492.500549,549.548767 485.830872,545.071899 479.039093,540.799377   C477.678314,539.943359 475.144012,539.440002 473.925690,540.134155   C468.861084,543.019470 464.045715,546.356140 459.226013,549.654602   C449.491943,556.316345 439.879059,563.157104 430.087463,569.732300   C424.918396,573.203369 419.251282,575.955627 414.208160,579.586853   C403.557556,587.255493 393.280640,595.442688 382.638947,603.124207   C373.857574,609.462952 364.804749,615.429016 355.806152,621.461670   C351.812714,624.138855 347.572845,626.449829 343.593689,629.146667   C337.284637,633.422546 331.121979,637.913635 324.857117,642.255615   C319.302002,646.105591 313.641602,649.804932 308.118835,653.700073   C300.932831,658.768250 293.967712,664.159912 286.661133,669.043640   C280.727570,673.009705 274.186218,676.083862 268.353333,680.178772   C260.031372,686.021179 252.209366,692.570679 243.985764,698.559937   C237.923187,702.975281 231.539444,706.947998 225.351410,711.194580   C224.370514,711.867737 223.667343,712.945679 223.450699,714.468994   C225.082153,714.654419 226.713593,715.002075 228.345062,715.002258   C394.184937,715.023682 560.024780,715.022278 725.864685,714.967346   C727.561523,714.966797 729.258179,714.237061 730.908936,713.148926   C728.931580,712.122864 726.954224,711.096802 724.697205,709.446533   C709.647705,698.974243 694.652710,688.422363 679.529297,678.057861   C669.657043,671.292114 659.524963,664.905518 649.650391,658.143005   C643.609863,654.006287 637.836609,649.479553 631.518066,644.902344   C631.518066,644.902344 631.036743,644.907532 631.001465,644.966187  M227.007416,680.008240   C227.007416,680.008240 227.007294,680.078064 227.609100,680.041809   C228.093948,679.697693 228.578796,679.353577 229.501495,678.951904   C229.814026,678.849182 229.998260,678.635742 230.620956,678.011047   C231.440933,677.354797 232.260895,676.698547 233.012924,676.070251   C233.012924,676.070251 233.051559,676.132751 233.664886,675.971741   C234.471954,675.329285 235.279022,674.686829 236.013916,674.060486   C236.013916,674.060486 236.047058,674.126648 236.655106,673.951599   C237.465393,673.315186 238.275681,672.678772 239.015106,672.065308   C239.015106,672.065308 239.047394,672.132446 239.660126,671.969666   C240.468124,671.327515 241.276123,670.685364 242.013306,670.063904   C242.013306,670.063904 242.048080,670.128967 242.655090,669.959045   C243.469849,669.318970 244.284592,668.678894 245.024231,668.040161   C245.024231,668.040161 245.035782,668.114380 245.625107,667.902039   C246.448257,667.280029 247.271408,666.658020 248.020569,666.043762   C248.020569,666.043762 248.044525,666.114197 248.620682,665.928040   C249.026657,665.280457 249.432617,664.632812 250.501373,663.768860   C258.714661,658.208862 266.951843,652.683777 275.136261,647.081543   C291.397644,635.950562 307.611176,624.749512 323.881409,613.631531   C333.518036,607.046570 343.294342,600.664246 352.875183,594.000061   C358.794067,589.883057 364.334839,585.219482 370.282043,581.146973   C376.046722,577.199463 382.229858,573.865723 388.023651,569.957642   C399.038330,562.527954 409.907288,554.882263 420.833282,547.321228   C421.652313,546.754456 422.429199,546.126648 423.250214,545.562927   C431.318390,540.022156 439.440704,534.558472 447.446930,528.929749   C452.984497,525.036621 458.363892,520.918640 463.974335,515.989075   C463.974335,443.104584 463.974335,370.220062 463.974335,297.335571   C463.642120,297.275055 463.309937,297.214508 462.977722,297.153992   C462.274597,298.408234 461.571442,299.662476 460.932343,300.987366   C460.932343,300.987366 461.001617,300.921936 460.546417,301.087769   C460.245331,301.327271 460.180481,301.619171 459.763458,302.408264   C454.344513,311.359070 449.125916,320.439240 443.452728,329.225922   C437.225555,338.870605 430.504456,348.194794 424.141327,357.753662   C419.628723,364.532593 415.309631,371.442017 410.985901,378.344421   C407.756104,383.500458 404.721924,388.779144 401.485413,393.930817   C395.253204,403.850769 388.954041,413.728790 382.654602,423.606323   C378.137451,430.689240 373.488922,437.690338 369.090210,444.845459   C367.937347,446.720764 367.877747,449.292053 366.655548,451.096283   C363.249390,456.124542 359.228119,460.746185 355.959259,465.854462   C352.929688,470.588715 350.842407,475.924103 347.834076,480.674255   C342.536072,489.039795 336.864441,497.169220 331.325378,505.381409   C328.557617,509.484924 325.598511,513.466125 322.974182,517.658020   C319.427216,523.323669 316.182007,529.177490 312.690186,534.878845   C309.454742,540.161560 305.981781,545.299438 302.770721,550.596497   C300.344666,554.598511 298.418671,558.920044 295.816772,562.795044   C292.254700,568.100037 287.963959,572.926270 284.537628,578.309143   C280.932526,583.972778 278.133423,590.144043 274.667572,595.904236   C273.145020,598.434692 270.553192,600.309692 268.947968,602.804688   C263.400757,611.426147 258.075867,620.190552 252.662964,628.898438   C248.246704,636.003235 243.858841,643.126038 239.395767,650.201294   C236.011429,655.566345 232.528824,660.869446 229.089279,666.199707   C225.755722,671.365784 222.342972,676.483093 219.126236,681.720886   C217.856232,683.788818 218.192383,684.076233 221.606445,683.914978   C222.100693,683.623352 222.594940,683.331665 223.016785,683.058044   C223.016785,683.058044 223.045319,683.126953 223.636642,682.923767   C224.455490,682.292847 225.274353,681.661865 226.019943,681.018433   C226.019943,681.018433 226.012833,681.092346 226.533646,680.900635   C226.714661,680.606079 226.895676,680.311462 227.007416,680.008240  z"/>
<path fill="#3E4546" opacity="1.000000" stroke="none" d=" M219.311859,736.340149   C223.321640,735.749878 227.678879,735.055054 232.036346,735.053589   C406.252167,734.994019 580.468018,734.984009 754.683838,735.045471   C760.948181,735.047668 766.993958,734.792053 772.780273,731.159424   C769.937805,736.330017 764.329407,736.838074 759.298767,736.861755   C709.996399,737.093506 660.692505,737.036316 611.389099,737.024658   C483.800415,736.994385 356.211731,736.947998 228.623047,736.889954   C225.635132,736.888611 222.647308,736.674011 219.311859,736.340149  z"/>
<path fill="#3E4546" opacity="1.000000" stroke="none" d=" M191.980301,735.446045   C194.061005,735.227600 196.263336,735.373230 198.747498,735.805542   C196.720184,735.998108 194.411072,735.904175 191.980301,735.446045  z"/>
<path fill="#3E4546" opacity="1.000000" stroke="none" d=" M208.190430,736.568726   C208.538544,736.204346 209.154602,735.961670 209.908325,735.943481   C209.516769,736.342102 208.987564,736.516235 208.190430,736.568726  z"/>
<path fill="#3E4546" opacity="1.000000" stroke="none" d=" M213.181885,736.349365   C213.597733,736.094238 214.238297,736.026001 214.977661,736.178589   C214.519852,736.445129 213.963211,736.490723 213.181885,736.349365  z"/>
<path fill="#3E4546" opacity="1.000000" stroke="none" d=" M186.255890,733.738403   C186.175446,733.429993 186.436691,733.313843 186.904022,733.519043   C186.855759,733.645569 186.684906,733.675598 186.255890,733.738403  z"/>
<path fill="#3E4546" opacity="1.000000" stroke="none" d=" M187.238800,734.153992   C187.418365,734.045654 187.591949,734.169983 187.861053,734.427002   C187.969086,734.542236 187.557892,734.661804 187.557892,734.661804   C187.557892,734.661804 187.245316,734.369141 187.238800,734.153992  z"/>
<path fill="#A5A8A9" opacity="1.000000" stroke="none" d=" M611.053467,630.989746   C611.340271,630.986206 611.595276,631.074524 612.042969,631.743835   C612.860046,632.485901 613.452820,632.738892 614.045532,632.991882   C614.348694,632.989319 614.611877,633.090698 615.022949,633.762207   C615.494568,634.475586 615.778198,634.722656 616.061890,634.969788   C616.061890,634.969788 615.998291,634.984741 616.168640,635.223511   C616.918579,635.624329 617.498169,635.786377 618.077759,635.948486   C618.077759,635.948486 618.007019,635.930908 618.057922,636.265259   C619.096924,637.047119 620.085022,637.494690 621.073120,637.942200   C621.073120,637.942200 621.017273,637.991272 621.112000,638.199646   C621.493347,638.592651 621.780029,638.777344 622.066650,638.961975   C622.066650,638.961975 622.006531,638.993469 622.173828,639.228271   C622.920776,639.625610 623.500549,639.788147 624.080261,639.950684   C624.080261,639.950684 624.015442,639.981934 624.112061,640.190430   C624.494141,640.587097 624.779541,640.775208 625.064941,640.963318   C625.064941,640.963318 625.004272,640.992615 625.170105,641.231201   C625.920654,641.633362 626.505432,641.796814 627.090149,641.960266   C627.090149,641.960266 627.017456,641.971436 627.061279,642.294495   C628.100220,643.062744 629.095337,643.507874 630.090393,643.953064   C630.090393,643.953064 630.021423,643.976318 630.116211,644.185303   C630.497131,644.587891 630.783264,644.781555 631.069336,644.975159   C631.069336,644.975159 631.001465,644.966187 631.070801,645.114258   C631.407837,645.217590 631.675598,645.172729 631.943298,645.127930   C637.836609,649.479553 643.609863,654.006287 649.650391,658.143005   C659.524963,664.905518 669.657043,671.292114 679.529297,678.057861   C694.652710,688.422363 709.647705,698.974243 724.666199,710.076599   C723.000305,710.856995 721.339783,710.875977 719.736633,711.188904   C717.408752,711.643433 713.903137,708.976013 712.619873,713.690857   C708.434326,713.753845 704.704834,713.717102 700.952454,713.309204   C698.033386,709.972229 695.805359,710.181702 693.685852,713.657043   C692.886963,713.665527 692.429077,713.603943 691.938843,713.164673   C690.903748,712.192566 689.906677,711.092407 688.897644,711.081360   C677.688293,710.958679 666.475952,710.932373 655.268372,711.119019   C654.174255,711.137268 653.106750,712.747925 651.690186,713.703369   C650.896118,713.741150 650.438660,713.695007 650.025879,713.349487   C649.571106,712.371765 649.071777,711.693359 648.572388,711.015015   C647.723755,711.884460 646.875061,712.753967 645.580750,713.707764   C642.418701,713.743958 639.702393,713.695862 637.066895,713.362244   C637.712646,712.478943 638.277466,711.881165 639.109497,711.000671   C622.815247,711.000671 607.048645,710.933044 591.284973,711.114929   C589.855957,711.131470 588.445496,712.753418 586.686401,713.701965   C585.888367,713.722168 585.430420,713.670105 584.942139,713.235046   C583.913452,712.236389 582.920471,711.095154 581.916138,711.085083   C569.778992,710.963379 557.639160,710.939819 545.503479,711.117432   C544.293579,711.135071 543.105530,712.641357 541.628784,713.573425   C540.557617,713.660706 539.764954,713.631348 538.942017,713.219910   C538.573914,712.321594 538.249023,711.364746 537.896484,711.354492   C531.874390,711.178040 525.848755,711.089355 519.824890,711.130310   C519.555054,711.132080 519.294800,712.544800 518.621765,713.372620   C506.467255,713.520569 494.721100,713.596191 482.947693,713.284302   C481.598572,712.265320 480.280212,711.093079 478.954193,711.084351   C460.634796,710.963135 442.313873,710.949951 423.995117,711.111328   C422.688751,711.122803 421.396179,712.701416 419.763977,713.647217   C418.282532,713.701172 417.134308,713.659180 416.060242,713.334839   C416.413452,712.509460 416.692505,711.966431 417.088898,711.195129   C412.289398,711.195129 407.684265,711.195129 402.931610,711.195129   C403.358398,712.119812 403.683960,712.825195 403.581512,713.642334   C401.098969,713.691589 399.044403,713.629089 397.077209,713.288940   C397.726013,712.493530 398.287445,711.975769 399.080475,711.244446   C391.893951,711.244446 384.972778,711.244446 377.947388,711.244446   C378.374695,712.220215 378.695007,712.951721 378.577148,713.752563   C369.416992,713.748779 360.695007,713.675537 351.942749,713.219788   C351.089417,712.230591 350.273132,711.107361 349.442200,711.096375   C339.902100,710.970398 330.358490,710.941895 320.820221,711.122803   C319.874390,711.140686 318.957977,712.711304 317.652008,713.656494   C316.508179,713.695374 315.740265,713.638916 314.940430,713.203491   C312.418884,710.574341 304.332581,710.165588 302.262024,712.247009   C301.986816,712.523621 302.094788,713.181519 301.589752,713.747925   C299.093079,713.733459 297.032013,713.633972 294.937378,713.157959   C294.051117,712.193787 293.202942,711.101868 292.345001,711.094116   C279.851318,710.981140 267.355591,710.957581 254.863129,711.121277   C253.907440,711.133789 252.972351,712.715698 251.567276,713.667480   C241.683167,713.789917 232.259460,713.813171 222.835754,713.836426   C223.667343,712.945679 224.370514,711.867737 225.351410,711.194580   C231.539444,706.947998 237.923187,702.975281 243.985764,698.559937   C252.209366,692.570679 260.031372,686.021179 268.353333,680.178772   C274.186218,676.083862 280.727570,673.009705 286.661133,669.043640   C293.967712,664.159912 300.932831,658.768250 308.118835,653.700073   C313.641602,649.804932 319.302002,646.105591 324.857117,642.255615   C331.121979,637.913635 337.284637,633.422546 343.593689,629.146667   C347.572845,626.449829 351.812714,624.138855 355.806152,621.461670   C364.804749,615.429016 373.857574,609.462952 382.638947,603.124207   C393.280640,595.442688 403.557556,587.255493 414.208160,579.586853   C419.251282,575.955627 424.918396,573.203369 430.087463,569.732300   C439.879059,563.157104 449.491943,556.316345 459.226013,549.654602   C464.045715,546.356140 468.861084,543.019470 473.925690,540.134155   C475.144012,539.440002 477.678314,539.943359 479.039093,540.799377   C485.830872,545.071899 492.500549,549.548767 499.087219,554.134644   C510.208466,561.877686 521.139160,569.897278 532.334229,577.530457   C540.067749,582.803406 548.259216,587.406433 555.972839,592.706360   C562.920166,597.479858 569.321106,603.050964 576.286194,607.795837   C582.829529,612.253418 589.803467,616.077576 596.563782,620.220032   C597.240112,620.634460 597.748474,621.322937 598.660828,622.350830   C602.350708,625.193848 605.714539,627.570251 609.078430,629.946716   C609.078430,629.946716 609.016968,629.982361 609.161987,630.219971   C609.889099,630.635010 610.471313,630.812378 611.053467,630.989746  M297.400024,711.943298   C297.987457,711.943298 298.574890,711.943298 299.162323,711.943298   C299.130157,711.667053 299.097992,711.390808 299.065857,711.114624   C298.552887,711.241943 298.039917,711.369263 297.400024,711.943298  M642.844421,711.700317   C642.922424,711.563110 643.000427,711.425964 643.078430,711.288818   C642.951721,711.347717 642.824951,711.406616 642.844421,711.700317  z"/>
<path fill="#BFC0C0" opacity="1.000000" stroke="none" d=" M463.813965,516.901184   C458.363892,520.918640 452.984497,525.036621 447.446930,528.929749   C439.440704,534.558472 431.318390,540.022156 423.250214,545.562927   C422.429199,546.126648 421.652313,546.754456 420.833282,547.321228   C409.907288,554.882263 399.038330,562.527954 388.023651,569.957642   C382.229858,573.865723 376.046722,577.199463 370.282043,581.146973   C364.334839,585.219482 358.794067,589.883057 352.875183,594.000061   C343.294342,600.664246 333.518036,607.046570 323.881409,613.631531   C307.611176,624.749512 291.397644,635.950562 275.136261,647.081543   C266.951843,652.683777 258.714661,658.208862 249.874100,663.980225   C248.846054,664.832458 248.445267,665.473328 248.044495,666.114197   C248.044525,666.114197 248.020569,666.043762 247.691803,666.024414   C246.587296,666.708252 245.811554,667.411316 245.035797,668.114380   C245.035782,668.114380 245.024231,668.040161 244.695740,668.018311   C243.594177,668.707336 242.821121,669.418152 242.048065,670.128967   C242.048080,670.128967 242.013306,670.063904 241.685272,670.031494   C240.587296,670.710266 239.817352,671.421326 239.047394,672.132446   C239.047394,672.132446 239.015106,672.065308 238.685333,672.034058   C237.586044,672.710815 236.816544,673.418701 236.047058,674.126648   C236.047058,674.126648 236.013916,674.060486 235.686462,674.026611   C234.589844,674.706055 233.820709,675.419434 233.051559,676.132751   C233.051559,676.132751 233.012924,676.070251 232.669006,676.035461   C231.568146,676.770996 230.811188,677.541260 230.054230,678.311584   C229.998260,678.635742 229.814026,678.849182 228.967697,679.003052   C227.958359,679.395447 227.482819,679.736755 227.007294,680.078064   C227.007294,680.078064 227.007416,680.008240 226.784210,680.101257   C226.378296,680.493652 226.195572,680.792969 226.012833,681.092346   C226.012833,681.092346 226.019943,681.018433 225.689667,681.010010   C224.588043,681.710022 223.816681,682.418518 223.045319,683.126953   C223.045319,683.126953 223.016785,683.058044 222.739868,683.035034   C221.975220,683.339905 221.487488,683.667786 220.999756,683.995667   C218.192383,684.076233 217.856232,683.788818 219.126236,681.720886   C222.342972,676.483093 225.755722,671.365784 229.089279,666.199707   C232.528824,660.869446 236.011429,655.566345 239.395767,650.201294   C243.858841,643.126038 248.246704,636.003235 252.662964,628.898438   C258.075867,620.190552 263.400757,611.426147 268.947968,602.804688   C270.553192,600.309692 273.145020,598.434692 274.667572,595.904236   C278.133423,590.144043 280.932526,583.972778 284.537628,578.309143   C287.963959,572.926270 292.254700,568.100037 295.816772,562.795044   C298.418671,558.920044 300.344666,554.598511 302.770721,550.596497   C305.981781,545.299438 309.454742,540.161560 312.690186,534.878845   C316.182007,529.177490 319.427216,523.323669 322.974182,517.658020   C325.598511,513.466125 328.557617,509.484924 331.325378,505.381409   C336.864441,497.169220 342.536072,489.039795 347.834076,480.674255   C350.842407,475.924103 352.929688,470.588715 355.959259,465.854462   C359.228119,460.746185 363.249390,456.124542 366.655548,451.096283   C367.877747,449.292053 367.937347,446.720764 369.090210,444.845459   C373.488922,437.690338 378.137451,430.689240 382.654602,423.606323   C388.954041,413.728790 395.253204,403.850769 401.485413,393.930817   C404.721924,388.779144 407.756104,383.500458 410.985901,378.344421   C415.309631,371.442017 419.628723,364.532593 424.141327,357.753662   C430.504456,348.194794 437.225555,338.870605 443.452728,329.225922   C449.125916,320.439240 454.344513,311.359070 460.184875,302.024780   C460.752716,301.409515 460.884491,301.169739 461.001617,300.921936   C461.001617,300.921936 460.932343,300.987366 461.300842,301.077911   C462.101044,302.970947 462.908539,304.773102 462.910309,306.576019   C462.976746,374.773773 462.962280,442.971558 463.006775,511.169342   C463.007996,513.080139 463.533112,514.990601 463.813965,516.901184  z"/>
<path fill="#EBEBEA" opacity="1.000000" stroke="none" d=" M714.819641,673.069214   C714.819641,673.069214 714.401062,673.023315 713.971680,672.852417   C713.058838,672.400879 712.575317,672.120300 712.091797,671.839783   C712.091797,671.839783 712.077942,671.923401 711.938293,671.655762   C710.900391,670.863037 710.002136,670.337891 709.103882,669.812744   C709.103882,669.812744 709.090820,669.901123 708.957825,669.632568   C707.916870,668.848145 707.008911,668.332214 706.100952,667.816345   C706.100952,667.816345 706.088623,667.903870 705.953857,667.637085   C704.917847,666.846008 704.016541,666.321777 703.115295,665.797546   C703.115295,665.797546 703.098450,665.888306 702.969238,665.619019   C701.934326,664.830261 701.028748,664.310791 700.123108,663.791321   C700.123108,663.791321 700.104858,663.880981 699.977234,663.609436   C698.937256,662.825378 698.024902,662.312866 697.112610,661.800293   C697.112610,661.800293 697.093140,661.893433 696.970215,661.632507   C696.291565,661.125610 695.735840,660.879639 695.180054,660.633667   C695.180054,660.633667 695.111877,660.792114 695.122559,660.522461   C694.781555,660.089783 694.429993,659.926819 694.078369,659.763855   C694.078369,659.763855 694.079163,659.894226 693.976074,659.619751   C693.311584,659.106750 692.750244,658.868164 692.188904,658.629578   C692.188904,658.629578 692.050232,658.766907 692.108521,658.520325   C691.803711,658.083252 691.440552,657.892700 691.077454,657.702209   C691.040527,657.368774 690.864563,657.144348 690.126953,656.761841   C688.816833,655.967163 687.929382,655.439575 687.041992,654.911987   C687.041992,654.911926 687.031799,654.986877 686.866577,654.730164   C685.822327,653.939758 684.943359,653.406067 684.064392,652.872375   C684.064392,652.872375 684.054382,652.952332 683.903442,652.677917   C683.166504,652.263916 682.580505,652.124390 681.994507,651.984802   C673.824768,646.377319 665.598328,640.850403 657.499573,635.142212   C647.079529,627.797974 636.804871,620.247375 626.378540,612.912292   C622.370422,610.092468 618.029236,607.747559 614.004944,604.948669   C611.075012,602.910889 608.415955,600.483582 605.097900,597.944702   C604.077087,597.377930 603.594482,597.096436 603.111816,596.814941   C603.111816,596.814941 603.094055,596.900696 602.964722,596.640503   C602.279419,596.131775 601.723511,595.883179 601.167542,595.634583   C601.167542,595.634583 601.088013,595.798950 601.103760,595.537842   C600.768860,595.110779 600.418213,594.944824 600.067505,594.778809   C600.067505,594.778809 600.074219,594.905396 599.972656,594.626831   C599.310059,594.111450 598.748962,593.874756 598.187866,593.638062   C598.187866,593.638062 598.049316,593.771301 598.114258,593.518921   C597.815979,593.059448 597.452881,592.852356 597.089722,592.645264   C597.049438,592.316956 596.871521,592.103210 596.130859,591.762573   C595.158691,591.259399 594.611694,590.997498 594.064758,590.735657   C594.064758,590.735657 594.036194,590.914062 594.023254,590.658325   C593.683044,590.236694 593.355713,590.070740 593.028442,589.904785   C593.028442,589.904785 593.031555,589.978333 592.871826,589.721802   C591.821228,588.947998 590.930298,588.430786 590.039429,587.913574   C590.039429,587.913574 590.024841,587.987000 589.877808,587.716309   C588.834473,586.933899 587.938110,586.422302 587.041748,585.910645   C587.041748,585.910645 587.031677,585.985535 586.859253,585.712524   C585.543213,584.831421 584.399536,584.223389 583.255920,583.615356   C583.255920,583.615356 583.159546,583.730835 583.168762,583.469604   C582.820984,583.045776 582.464050,582.883179 582.107117,582.720520   C582.107117,582.720520 582.100891,582.856201 582.001282,582.581055   C581.337769,582.075989 580.773865,581.846069 580.209961,581.616211   C580.209961,581.616150 580.039368,581.746277 580.119019,581.507874   C579.828552,581.063110 579.458435,580.856689 579.088379,580.650269   C579.033752,580.320435 578.845520,580.110046 578.097046,579.772827   C577.142578,579.221924 576.614990,578.917358 576.087341,578.612793   C576.044556,578.294373 575.868835,578.090515 575.143066,577.745300   C573.837036,576.952698 572.948181,576.415955 572.059387,575.879150   C572.059387,575.879150 572.051392,575.958374 571.876587,575.689941   C570.750977,574.836609 569.800293,574.251831 568.849548,573.666992   C565.901794,571.497864 563.031494,569.211853 559.983826,567.193542   C557.139099,565.309692 553.975647,563.896912 551.182983,561.946716   C545.261047,557.811096 539.489136,553.460693 533.115967,548.913940   C532.086853,548.358521 531.597473,548.087585 531.108093,547.816650   C531.108093,547.816650 531.091919,547.904175 530.967224,547.641235   C530.289673,547.129150 529.736755,546.879944 529.183899,546.630798   C529.183899,546.630798 529.107849,546.783447 529.121338,546.517700   C528.779541,546.096924 528.424194,545.941833 528.068909,545.786743   C528.068909,545.786743 528.072571,545.905640 527.953369,545.631226   C526.940369,544.822327 526.046570,544.287903 525.152832,543.753418   C525.152832,543.753418 525.121094,543.849060 525.008240,543.584534   C524.335571,543.086060 523.775757,542.852051 523.215942,542.618103   C523.215942,542.618103 523.059692,542.743225 523.127563,542.500305   C522.824951,542.063049 522.454468,541.868713 522.083984,541.674377   C522.037720,541.341309 521.854431,541.123535 521.108154,540.775879   C520.141296,540.271790 519.600464,540.012817 519.059570,539.753784   C519.059570,539.753784 519.073181,539.897888 518.979858,539.617432   C518.333069,539.094482 517.779602,538.851929 517.226135,538.609375   C517.226135,538.609375 517.123596,538.736755 517.148315,538.477600   C516.810547,538.062256 516.447998,537.906006 516.085510,537.749817   C516.085510,537.749817 516.085083,537.879578 515.972290,537.602661   C514.953857,536.804382 514.048157,536.282898 513.142517,535.761475   C513.142517,535.761475 513.112061,535.856934 512.987549,535.587341   C512.247864,535.181335 511.632782,535.044922 511.017700,534.908508   C507.059967,532.151794 503.102203,529.395020 498.962891,525.786377   C498.652344,524.615845 498.523438,524.297241 498.394531,523.978577   C498.243225,524.426514 498.091949,524.874451 497.918335,524.778076   C505.245392,522.507202 512.539429,520.480652 519.954895,519.112000   C539.922607,515.426819 559.952942,512.082153 579.937317,508.485321   C593.260071,506.087494 606.546631,503.489014 619.849426,500.980377   C629.985107,516.516541 640.120789,532.052612 650.643433,548.070923   C651.669006,549.404724 652.307739,550.256348 652.946533,551.107910   C652.946533,551.107910 652.972534,551.037720 653.010803,551.304749   C653.334534,551.791565 653.620056,552.011353 653.905518,552.231140   C653.905518,552.231140 653.892517,552.050110 653.887451,552.365356   C654.242615,553.169006 654.602905,553.657349 654.963135,554.145691   C654.923889,554.457275 655.018127,554.721130 655.583496,555.308350   C656.255920,555.834351 656.590820,555.989380 656.925720,556.144348   C656.925720,556.144348 656.694824,556.040344 656.693359,556.453125   C657.066589,557.324463 657.441223,557.783020 657.815857,558.241638   C657.815857,558.241638 657.853333,558.098145 657.863586,558.390076   C658.231873,559.159485 658.589905,559.636963 658.947937,560.114441   C658.947937,560.114441 658.974854,560.042358 659.023193,560.345276   C659.697449,561.466919 660.323425,562.285645 660.949341,563.104370   C660.949341,563.104370 660.983398,563.036255 661.031616,563.339355   C661.703674,564.462219 662.327454,565.281921 662.951294,566.101624   C662.951294,566.101624 662.985718,566.034424 663.023438,566.315247   C663.527405,567.168274 663.993713,567.740417 664.460022,568.312561   C664.460022,568.312561 664.519897,568.332642 664.617188,568.659546   C665.459473,570.024963 666.204529,571.063477 666.949585,572.101929   C666.949585,572.101929 666.984009,572.033813 667.038574,572.335693   C667.711548,573.460083 668.329956,574.282654 668.948364,575.105225   C668.948364,575.105225 668.981750,575.036316 669.035767,575.337891   C669.709473,576.461426 670.329285,577.283447 670.949036,578.105408   C670.949036,578.105408 670.983398,578.036987 671.017761,578.316772   C671.388489,579.054993 671.724915,579.513428 672.061340,579.971802   C681.282776,594.109070 690.504272,608.246399 699.596008,622.935852   C701.136353,626.368469 702.639832,629.363892 704.526428,632.094727   C706.192566,634.506409 708.286011,636.622803 710.190796,638.869507   C710.190796,638.869507 710.087769,638.937256 710.083374,639.251221   C710.765930,640.346680 711.452759,641.128235 712.139648,641.909729   C712.139648,641.909729 712.044983,641.960693 712.053772,642.283936   C712.769226,643.381653 713.475891,644.156189 714.182495,644.930725   C714.182495,644.930725 714.508423,644.981384 714.758850,645.319458   C715.640320,646.492798 716.271362,647.328003 716.902405,648.163208   C716.902405,648.163208 716.918579,648.081787 716.963745,648.389160   C717.631836,649.526978 718.254639,650.357483 718.877441,651.188049   C718.877441,651.188049 718.890991,651.097412 718.942261,651.405762   C719.611816,652.546875 720.230164,653.379639 720.848572,654.212402   C720.848572,654.212402 720.882751,654.079346 720.897278,654.364258   C721.264648,655.124329 721.617493,655.599487 721.970276,656.074646   C721.970276,656.074646 722.004883,656.022339 722.038330,656.291016   C722.355774,656.779907 722.639771,657.000061 722.923828,657.220276   C722.923828,657.220276 722.906555,657.051208 722.919312,657.354919   C723.235413,657.858826 723.538696,658.059021 723.841980,658.259216   C723.841980,658.259216 723.759033,658.093567 723.732178,658.455200   C724.083801,659.286133 724.462280,659.755310 724.840698,660.224548   C724.840698,660.224548 724.877930,660.081848 724.887268,660.375488   C725.253235,661.157349 725.609924,661.645630 725.966553,662.133911   C725.923401,662.432373 726.002380,662.694031 726.510376,663.252625   C726.923889,663.933533 727.030273,664.280762 727.111206,665.016968   C727.804565,666.209412 728.523315,667.012817 729.185608,667.844604   C729.129150,667.873047 729.186829,667.760559 729.146729,668.138672   C729.818237,669.283447 730.529785,670.050110 731.229919,670.840759   C731.218506,670.864807 731.233887,670.807983 731.183228,671.174988   C731.807068,672.327637 732.481567,673.113281 733.156067,673.898865   C733.156067,673.898865 733.059631,673.952393 733.063049,674.270874   C733.757385,675.363037 734.448303,676.136719 735.139221,676.910339   C735.139221,676.910339 735.043701,676.959778 735.050049,677.292114   C736.343872,680.422058 737.631348,683.219727 739.142700,686.504028   C736.962463,686.332153 735.419373,686.210510 733.876343,686.088928   C733.876343,686.088928 733.965637,686.036804 733.901123,685.727417   C732.853821,684.971497 731.871033,684.524963 730.888245,684.078430   C730.888245,684.078430 730.970398,684.023987 730.914368,683.724304   C727.520081,681.323853 724.181824,679.223145 720.843567,677.122375   C720.843567,677.122375 720.948120,677.066345 720.886475,676.756409   C719.835754,675.999756 718.846680,675.553040 717.857605,675.106384   C717.857605,675.106384 717.953613,675.055725 717.889160,674.741699   C716.823059,673.974792 715.821350,673.521973 714.819641,673.069214  z"/>
<path fill="#ECECEB" opacity="1.000000" stroke="none" d=" M494.527039,307.097656   C499.615509,315.029785 504.620667,323.016968 509.812866,330.880615   C516.824768,341.500366 524.107605,351.942474 531.044250,362.610291   C541.051453,378.000244 550.817200,393.546997 560.752502,408.984009   C568.253784,420.639191 575.891479,432.206573 583.401184,443.856354   C586.082031,448.015045 588.565491,452.300934 591.525513,457.027588   C591.951355,457.986053 591.990601,458.445740 591.958496,459.259216   C591.028625,460.328918 590.279053,461.292389 589.295898,461.724792   C560.113770,474.559692 530.912109,487.350006 501.703094,500.123657   C497.370361,502.018494 492.986084,503.795532 488.460693,505.696350   C488.460693,437.282166 488.460693,369.591156 488.460693,302.083862   C490.609619,303.859924 492.568329,305.478790 494.527039,307.097656  z"/>
<path fill="#FCFCFB" opacity="1.000000" stroke="none" d=" M494.486206,306.711639   C492.568329,305.478790 490.609619,303.859924 488.460693,302.083862   C488.460693,369.591156 488.460693,437.282166 488.460693,505.696350   C492.986084,503.795532 497.370361,502.018494 501.703094,500.123657   C530.912109,487.350006 560.113770,474.559692 589.295898,461.724792   C590.279053,461.292389 591.028625,460.328918 592.224731,459.362549   C592.995789,459.477051 593.429138,459.842072 593.862549,460.207062   C593.862549,460.207062 593.894470,460.088837 593.916748,460.361572   C594.200012,460.883514 594.460999,461.132721 594.722046,461.381927   C594.722046,461.381927 594.657410,461.184570 594.679077,461.528137   C595.081238,462.325928 595.461670,462.780151 595.842102,463.234375   C595.842102,463.234375 595.864014,463.134247 595.901489,463.446198   C596.575867,464.578064 597.212891,465.398010 597.849854,466.217926   C597.849854,466.217926 597.881470,466.095947 597.901245,466.368347   C598.178772,466.890503 598.436584,467.140259 598.694336,467.390015   C598.694336,467.390015 598.594971,467.240143 598.666138,467.605133   C599.470642,469.020874 600.204041,470.071594 600.937439,471.122345   C600.937439,471.122345 600.971680,471.051270 601.005371,471.333740   C601.513855,472.214630 601.988586,472.813049 602.463379,473.411499   C602.640076,473.351379 602.816833,473.291260 602.863525,473.619354   C603.467346,475.047333 604.201111,476.087097 604.934937,477.126862   C604.934937,477.126862 604.967468,477.054810 605.008911,477.359955   C605.671631,478.493073 606.292908,479.321045 606.914185,480.148987   C606.914185,480.148987 606.942871,480.071350 606.996460,480.383942   C607.693909,481.433624 608.337830,482.170685 608.981750,482.907745   C612.548340,488.714050 616.114929,494.520386 619.765503,500.653503   C606.546631,503.489014 593.260071,506.087494 579.937317,508.485321   C559.952942,512.082153 539.922607,515.426819 519.954895,519.112000   C512.539429,520.480652 505.245392,522.507202 497.533966,524.611694   C493.857971,522.132568 490.544037,519.275452 486.884796,515.828247   C486.524567,503.420380 486.494965,491.602661 486.497070,479.784943   C486.507904,418.848480 486.526855,357.912018 486.542938,296.975555   C489.177094,300.092255 491.811249,303.208923 494.486206,306.711639  z"/>
<path fill="#3E4546" opacity="1.000000" stroke="none" d=" M538.972290,713.601929   C539.764954,713.631348 540.557617,713.660706 542.033325,713.666260   C555.134888,713.623352 567.553528,713.604248 580.347900,713.679077   C581.491028,713.723694 582.258362,713.674316 583.348633,713.682861   C584.105286,713.699829 584.538879,713.658936 584.972534,713.618042   C585.430420,713.670105 585.888367,713.722168 587.051575,713.771851   C588.496826,713.734985 589.236816,713.700439 590.376709,713.747070   C591.858337,713.774170 592.940063,713.720032 594.483032,713.728882   C599.954956,713.735901 604.965576,713.679871 610.411011,713.704102   C612.904785,713.729065 614.963806,713.673889 617.484131,713.689331   C624.292358,713.722534 630.639160,713.685181 636.986023,713.647766   C639.702393,713.695862 642.418701,713.743958 645.972595,713.775513   C647.867126,713.722290 648.924194,713.685547 649.981201,713.648865   C650.438660,713.695007 650.896118,713.741150 652.142334,713.770752   C656.278503,713.707947 659.625977,713.661682 663.349365,713.702087   C664.491333,713.747742 665.257446,713.706726 666.347229,713.722168   C667.105286,713.736450 667.539551,713.694275 668.400757,713.734253   C670.560364,713.753296 672.293091,713.690186 674.487732,713.688110   C680.623535,713.680115 686.297363,713.611206 691.971252,713.542358   C692.429077,713.603943 692.886963,713.665527 694.115479,713.730713   C696.915833,713.716370 698.945618,713.698364 700.975342,713.680359   C704.704834,713.717102 708.434326,713.753845 713.077942,713.758545   C719.646362,713.766907 725.300598,713.807312 730.954895,713.847778   C729.258179,714.237061 727.561523,714.966797 725.864685,714.967346   C560.024780,715.022278 394.184937,715.023682 228.345062,715.002258   C226.713593,715.002075 225.082153,714.654419 223.143219,714.152710   C232.259460,713.813171 241.683167,713.789917 252.017242,713.765869   C256.609100,713.705078 260.290619,713.645081 264.235931,713.673157   C265.045135,713.722595 265.590485,713.683899 266.418701,713.650391   C272.791077,713.614990 278.880554,713.574402 285.309570,713.621277   C286.109131,713.650879 286.569183,713.593018 287.463989,713.616211   C290.256134,713.643005 292.613525,713.588745 294.970917,713.534485   C297.032013,713.633972 299.093079,713.733459 302.047668,713.807617   C306.951538,713.715576 310.961945,713.649048 314.972321,713.582520   C315.740265,713.638916 316.508179,713.695374 318.112701,713.737488   C329.957184,713.682861 340.965118,713.642578 351.973022,713.602356   C360.695007,713.675537 369.416992,713.748779 379.041870,713.800537   C385.626434,713.708252 391.308167,713.637390 396.989868,713.566589   C399.044403,713.629089 401.098969,713.691589 404.037476,713.709717   C408.609650,713.649353 412.297882,713.633301 415.986115,713.617249   C417.134308,713.659180 418.282532,713.701172 420.184387,713.638855   C441.617035,713.580322 462.295959,713.626099 482.974915,713.671875   C494.721100,713.596191 506.467255,713.520569 518.984131,713.445496   C521.493469,713.485657 523.232117,713.525146 525.311279,713.645264   C526.110901,713.664368 526.569946,713.603027 527.480713,713.619019   C531.612366,713.664856 535.292297,713.633423 538.972290,713.601929  z"/>
<path fill="#101718" opacity="1.000000" stroke="none" d=" M486.247986,297.209412   C486.526855,357.912018 486.507904,418.848480 486.497070,479.784943   C486.494965,491.602661 486.524567,503.420380 486.592163,515.631531   C486.105103,514.601807 485.094666,513.179138 485.093231,511.755463   C485.022095,441.538208 485.032928,371.320923 485.081329,301.103638   C485.082153,299.883331 485.649841,298.663391 486.247986,297.209412  z"/>
<path fill="#ECECEB" opacity="1.000000" stroke="none" d=" M463.894165,516.445129   C463.533112,514.990601 463.007996,513.080139 463.006775,511.169342   C462.962280,442.971558 462.976746,374.773773 462.910309,306.576019   C462.908539,304.773102 462.101044,302.970947 461.268799,301.042603   C461.571442,299.662476 462.274597,298.408234 462.977722,297.153992   C463.309937,297.214508 463.642120,297.275055 463.974335,297.335571   C463.974335,370.220062 463.974335,443.104584 463.894165,516.445129  z"/>
<path fill="#ECECEB" opacity="1.000000" stroke="none" d=" M734.059021,686.373901   C735.419373,686.210510 736.962463,686.332153 739.142700,686.504028   C737.631348,683.219727 736.343872,680.422058 735.077026,677.245544   C739.015808,682.277161 742.934021,687.687561 746.852234,693.098022   C746.417053,693.461304 745.981934,693.824585 745.546814,694.187866   C741.778442,691.678223 738.010071,689.168579 734.059021,686.373901  z"/>
<path fill="#BFC0C0" opacity="1.000000" stroke="none" d=" M730.931885,713.498291   C725.300598,713.807312 719.646362,713.766907 713.533997,713.658813   C713.903137,708.976013 717.408752,711.643433 719.736633,711.188904   C721.339783,710.875977 723.000305,710.856995 724.806030,710.388672   C726.954224,711.096802 728.931580,712.122864 730.931885,713.498291  z"/>
<path fill="#ECECEB" opacity="1.000000" stroke="none" d=" M710.125488,638.510437   C708.286011,636.622803 706.192566,634.506409 704.526428,632.094727   C702.639832,629.363892 701.136353,626.368469 699.672241,623.266541   C703.272156,628.080505 706.666138,633.115967 710.125488,638.510437  z"/>
<path fill="#ECECEB" opacity="1.000000" stroke="none" d=" M721.036804,677.408630   C724.181824,679.223145 727.520081,681.323853 730.894043,683.769165   C727.696533,681.974121 724.463318,679.834473 721.036804,677.408630  z"/>
<path fill="#BFC0C0" opacity="1.000000" stroke="none" d=" M608.902283,629.653931   C605.714539,627.570251 602.350708,625.193848 599.009888,622.461670   C602.264038,624.524292 605.495117,626.942749 608.902283,629.653931  z"/>
<path fill="#31393C" opacity="1.000000" stroke="none" d=" M583.284851,583.987427   C584.399536,584.223389 585.543213,584.831421 586.893066,585.695679   C585.837463,585.421082 584.575623,584.890320 583.284851,583.987427  z"/>
<path fill="#31393C" opacity="1.000000" stroke="none" d=" M666.970825,571.729065   C666.204529,571.063477 665.459473,570.024963 664.642212,568.678711   C665.377380,569.366028 666.184692,570.361145 666.970825,571.729065  z"/>
<path fill="#31393C" opacity="1.000000" stroke="none" d=" M604.950562,476.745941   C604.201111,476.087097 603.467346,475.047333 602.599365,473.717407   C603.298828,474.406494 604.132568,475.385742 604.950562,476.745941  z"/>
<path fill="#31393C" opacity="1.000000" stroke="none" d=" M600.955444,470.742279   C600.204041,470.071594 599.470642,469.020874 598.608459,467.674133   C599.310913,468.372864 600.142212,469.367523 600.955444,470.742279  z"/>
<path fill="#ECECEB" opacity="1.000000" stroke="none" d=" M718.018860,675.374390   C718.846680,675.553040 719.835754,675.999756 720.856140,676.807373   C719.984985,676.659668 719.082581,676.151001 718.018860,675.374390  z"/>
<path fill="#BFC0C0" opacity="1.000000" stroke="none" d=" M629.906006,643.701355   C629.095337,643.507874 628.100220,643.062744 627.071411,642.259155   C627.932312,642.416992 628.827026,642.933289 629.906006,643.701355  z"/>
<path fill="#ECECEB" opacity="1.000000" stroke="none" d=" M712.046631,641.610352   C711.452759,641.128235 710.765930,640.346680 710.109619,639.195435   C710.744629,639.654053 711.349121,640.482483 712.046631,641.610352  z"/>
<path fill="#ECECEB" opacity="1.000000" stroke="none" d=" M714.076355,644.633301   C713.475891,644.156189 712.769226,643.381653 712.079956,642.236938   C712.721619,642.689758 713.345947,643.512756 714.076355,644.633301  z"/>
<path fill="#31393C" opacity="1.000000" stroke="none" d=" M597.907715,465.835938   C597.212891,465.398010 596.575867,464.578064 595.850830,463.454224   C596.497009,463.918152 597.231262,464.686066 597.907715,465.835938  z"/>
<path fill="#31393C" opacity="1.000000" stroke="none" d=" M716.940674,647.786499   C716.271362,647.328003 715.640320,646.492798 714.920532,645.352051   C715.547546,645.834167 716.263245,646.621948 716.940674,647.786499  z"/>
<path fill="#ECECEB" opacity="1.000000" stroke="none" d=" M731.056396,684.340942   C731.871033,684.524963 732.853821,684.971497 733.877808,685.773499   C733.020813,685.620544 732.122620,685.112000 731.056396,684.340942  z"/>
<path fill="#31393C" opacity="1.000000" stroke="none" d=" M718.927246,650.811401   C718.254639,650.357483 717.631836,649.526978 716.922363,648.392456   C717.549500,648.870544 718.263245,649.652649 718.927246,650.811401  z"/>
<path fill="#31393C" opacity="1.000000" stroke="none" d=" M720.907104,653.832275   C720.230164,653.379639 719.611816,652.546875 718.897095,651.413452   C719.522278,651.892578 720.243958,652.672424 720.907104,653.832275  z"/>
<path fill="#EBEBEA" opacity="1.000000" stroke="none" d=" M223.340988,683.025391   C223.816681,682.418518 224.588043,681.710022 225.726288,681.016235   C225.274353,681.661865 224.455490,682.292847 223.340988,683.025391  z"/>
<path fill="#31393C" opacity="1.000000" stroke="none" d=" M684.071228,653.236938   C684.943359,653.406067 685.822327,653.939758 686.900085,654.712646   C686.091919,654.501770 685.084961,654.051636 684.071228,653.236938  z"/>
<path fill="#EBEBEA" opacity="1.000000" stroke="none" d=" M230.337585,678.161316   C230.811188,677.541260 231.568146,676.770996 232.702972,676.021484   C232.260895,676.698547 231.440933,677.354797 230.337585,678.161316  z"/>
<path fill="#31393C" opacity="1.000000" stroke="none" d=" M687.058228,655.274841   C687.929382,655.439575 688.816833,655.967163 689.904724,656.734131   C689.094910,656.528259 688.084656,656.082947 687.058228,655.274841  z"/>
<path fill="#EBEBEA" opacity="1.000000" stroke="none" d=" M239.353760,672.051025   C239.817352,671.421326 240.587296,670.710266 241.720673,670.021179   C241.276123,670.685364 240.468124,671.327515 239.353760,672.051025  z"/>
<path fill="#ECECEB" opacity="1.000000" stroke="none" d=" M735.044434,676.611938   C734.448303,676.136719 733.757385,675.363037 733.088013,674.221680   C733.722961,674.673889 734.336243,675.493774 735.044434,676.611938  z"/>
<path fill="#EBEBEA" opacity="1.000000" stroke="none" d=" M233.358215,676.052246   C233.820709,675.419434 234.589844,674.706055 235.722534,674.018555   C235.279022,674.686829 234.471954,675.329285 233.358215,676.052246  z"/>
<path fill="#ECECEB" opacity="1.000000" stroke="none" d=" M714.991882,673.344177   C715.821350,673.521973 716.823059,673.974792 717.863892,674.789673   C716.990112,674.640869 716.077148,674.130005 714.991882,673.344177  z"/>
<path fill="#EBEBEA" opacity="1.000000" stroke="none" d=" M236.351074,674.039124   C236.816544,673.418701 237.586044,672.710815 238.720749,672.022583   C238.275681,672.678772 237.465393,673.315186 236.351074,674.039124  z"/>
<path fill="#31393C" opacity="1.000000" stroke="none" d=" M697.107056,662.174072   C698.024902,662.312866 698.937256,662.825378 700.022522,663.603027   C699.164124,663.427979 698.132751,662.987854 697.107056,662.174072  z"/>
<path fill="#31393C" opacity="1.000000" stroke="none" d=" M700.108521,664.166748   C701.028748,664.310791 701.934326,664.830261 703.014893,665.612732   C702.157898,665.431213 701.125916,664.986694 700.108521,664.166748  z"/>
<path fill="#ECECEB" opacity="1.000000" stroke="none" d=" M733.105896,673.673584   C732.481567,673.113281 731.807068,672.327637 731.372070,671.227661   C731.611511,670.913269 731.942078,671.123840 731.942078,671.123840   C731.942078,671.123840 731.965393,671.047852 731.998047,671.315308   C732.312744,671.803528 732.594788,672.024353 732.876831,672.245117   C732.876831,672.245117 732.767090,672.112976 732.777222,672.378540   C732.787354,672.644104 733.040955,672.986938 733.040955,672.986938   C733.040955,672.986938 733.055725,673.448242 733.105896,673.673584  z"/>
<path fill="#EBEBEA" opacity="1.000000" stroke="none" d=" M245.330460,668.008179   C245.811554,667.411316 246.587296,666.708252 247.728790,666.020630   C247.271408,666.658020 246.448257,667.280029 245.330460,668.008179  z"/>
<path fill="#31393C" opacity="1.000000" stroke="none" d=" M703.106750,666.170898   C704.016541,666.321777 704.917847,666.846008 705.997559,667.630371   C705.150085,667.441772 704.124146,666.992981 703.106750,666.170898  z"/>
<path fill="#EBEBEA" opacity="1.000000" stroke="none" d=" M242.351578,670.044006   C242.821121,669.418152 243.594177,668.707336 244.733292,668.017700   C244.284592,668.678894 243.469849,669.318970 242.351578,670.044006  z"/>
<path fill="#31393C" opacity="1.000000" stroke="none" d=" M706.098206,668.188232   C707.008911,668.332214 707.916870,668.848145 709.001953,669.625793   C708.151245,669.445129 707.123352,669.002625 706.098206,668.188232  z"/>
<path fill="#31393C" opacity="1.000000" stroke="none" d=" M709.099487,670.183838   C710.002136,670.337891 710.900391,670.863037 711.979553,671.646118   C711.138672,671.454346 710.116882,671.004700 709.099487,670.183838  z"/>
<path fill="#BFC0C0" opacity="1.000000" stroke="none" d=" M620.933105,637.660217   C620.085022,637.494690 619.096924,637.047119 618.084167,636.239990   C618.970703,636.379700 619.881958,636.878967 620.933105,637.660217  z"/>
<path fill="#31393C" opacity="1.000000" stroke="none" d=" M593.916626,459.815308   C593.429138,459.842072 592.995789,459.477051 592.296143,459.008728   C591.990601,458.445740 591.951355,457.986053 591.795288,457.199280   C592.442627,457.722626 593.206604,458.573090 593.916626,459.815308  z"/>
<path fill="#31393C" opacity="1.000000" stroke="none" d=" M572.071533,576.245239   C572.948181,576.415955 573.837036,576.952698 574.931519,577.727356   C574.119263,577.513977 573.101440,577.062683 572.071533,576.245239  z"/>
<path fill="#31393C" opacity="1.000000" stroke="none" d=" M670.962646,577.736694   C670.329285,577.283447 669.709473,576.461426 668.997681,575.342102   C669.595886,575.819153 670.286072,576.593628 670.962646,577.736694  z"/>
<path fill="#31393C" opacity="1.000000" stroke="none" d=" M568.908325,574.053345   C569.800293,574.251831 570.750977,574.836609 571.914490,575.677856   C571.073914,575.436096 570.020508,574.937927 568.908325,574.053345  z"/>
<path fill="#31393C" opacity="1.000000" stroke="none" d=" M587.060913,586.272278   C587.938110,586.422302 588.834473,586.933899 589.911560,587.700073   C589.088196,587.514343 588.084167,587.074097 587.060913,586.272278  z"/>
<path fill="#31393C" opacity="1.000000" stroke="none" d=" M590.067139,588.273804   C590.930298,588.430786 591.821228,588.947998 592.906067,589.708252   C592.098267,589.512207 591.096497,589.073059 590.067139,588.273804  z"/>
<path fill="#31393C" opacity="1.000000" stroke="none" d=" M668.965576,574.736877   C668.329956,574.282654 667.711548,573.460083 667.000732,572.340454   C667.599792,572.818420 668.291260,573.593506 668.965576,574.736877  z"/>
<path fill="#31393C" opacity="1.000000" stroke="none" d=" M662.963562,565.733582   C662.327454,565.281921 661.703674,564.462219 660.993774,563.343140   C661.596985,563.817749 662.286438,564.591614 662.963562,565.733582  z"/>
<path fill="#31393C" opacity="1.000000" stroke="none" d=" M660.963623,562.734436   C660.323425,562.285645 659.697449,561.466919 658.984863,560.348999   C659.591492,560.821350 660.284668,561.592896 660.963623,562.734436  z"/>
<path fill="#31393C" opacity="1.000000" stroke="none" d=" M652.963013,550.732300   C652.307739,550.256348 651.669006,549.404724 650.929260,548.246521   C651.545349,548.745483 652.262451,549.551086 652.963013,550.732300  z"/>
<path fill="#31393C" opacity="1.000000" stroke="none" d=" M525.132019,544.129272   C526.046570,544.287903 526.940369,544.822327 528.011230,545.617676   C527.162659,545.420715 526.136963,544.962891 525.132019,544.129272  z"/>
<path fill="#31393C" opacity="1.000000" stroke="none" d=" M513.128418,536.138550   C514.048157,536.282898 514.953857,536.804382 516.035583,537.588318   C515.179199,537.405762 514.146790,536.960754 513.128418,536.138550  z"/>
<path fill="#31393C" opacity="1.000000" stroke="none" d=" M609.004150,482.552216   C608.337830,482.170685 607.693909,481.433624 606.955078,480.386230   C607.582336,480.782806 608.304443,481.489746 609.004150,482.552216  z"/>
<path fill="#31393C" opacity="1.000000" stroke="none" d=" M606.947021,479.776184   C606.292908,479.321045 605.671631,478.493073 604.969360,477.360779   C605.585571,477.838806 606.282776,478.621094 606.947021,479.776184  z"/>
<path fill="#31393C" opacity="1.000000" stroke="none" d=" M712.056885,672.140259   C712.575317,672.120300 713.058838,672.400879 713.761414,672.862427   C713.327637,672.842529 712.674866,672.641663 712.056885,672.140259  z"/>
<path fill="#31393C" opacity="1.000000" stroke="none" d=" M531.073608,548.119202   C531.597473,548.087585 532.086853,548.358521 532.784729,548.822144   C532.341858,548.817078 531.690491,548.619446 531.073608,548.119202  z"/>
<path fill="#31393C" opacity="1.000000" stroke="none" d=" M664.616089,567.985840   C663.993713,567.740417 663.527405,567.168274 662.985901,566.319031   C663.531128,566.580994 664.151672,567.120056 664.616089,567.985840  z"/>
<path fill="#31393C" opacity="1.000000" stroke="none" d=" M672.301392,579.810547   C671.724915,579.513428 671.388489,579.054993 670.979736,578.320923   C671.452026,578.579956 671.996765,579.114624 672.301392,579.810547  z"/>
<path fill="#31393C" opacity="1.000000" stroke="none" d=" M602.607300,473.067657   C601.988586,472.813049 601.513855,472.214630 600.965942,471.335327   C601.512329,471.610931 602.131775,472.167358 602.607300,473.067657  z"/>
<path fill="#EBEBEA" opacity="1.000000" stroke="none" d=" M248.332581,666.021118   C248.445267,665.473328 248.846054,664.832458 249.542694,664.088379   C249.432617,664.632812 249.026657,665.280457 248.332581,666.021118  z"/>
<path fill="#31393C" opacity="1.000000" stroke="none" d=" M603.071838,597.116577   C603.594482,597.096436 604.077087,597.377930 604.771362,597.848633   C604.332642,597.831299 603.682251,597.624756 603.071838,597.116577  z"/>
<path fill="#31393C" opacity="1.000000" stroke="none" d=" M517.295959,538.945618   C517.779602,538.851929 518.333069,539.094482 519.049683,539.598450   C518.597168,539.667175 517.981445,539.474548 517.295959,538.945618  z"/>
<path fill="#31393C" opacity="1.000000" stroke="none" d=" M595.867065,462.881653   C595.461670,462.780151 595.081238,462.325928 594.592834,461.585907   C594.953857,461.709747 595.422913,462.119354 595.867065,462.881653  z"/>
<path fill="#BFC0C0" opacity="1.000000" stroke="none" d=" M610.839600,630.783569   C610.471313,630.812378 609.889099,630.635010 609.158081,630.184692   C609.548035,630.133667 610.086914,630.355591 610.839600,630.783569  z"/>
<path fill="#31393C" opacity="1.000000" stroke="none" d=" M529.265686,546.961304   C529.736755,546.879944 530.289673,547.129150 531.011414,547.636169   C530.569336,547.693298 529.958374,547.492554 529.265686,546.961304  z"/>
<path fill="#BFC0C0" opacity="1.000000" stroke="none" d=" M613.827515,632.777161   C613.452820,632.738892 612.860046,632.485901 612.158264,631.914124   C612.569275,631.917664 613.089355,632.240051 613.827515,632.777161  z"/>
<path fill="#31393C" opacity="1.000000" stroke="none" d=" M523.291138,542.954590   C523.775757,542.852051 524.335571,543.086060 525.058594,543.582031   C524.603271,543.659729 523.984802,543.475403 523.291138,542.954590  z"/>
<path fill="#31393C" opacity="1.000000" stroke="none" d=" M519.173889,540.060547   C519.600464,540.012817 520.141296,540.271790 520.885315,540.754639   C520.488342,540.774780 519.888306,540.570984 519.173889,540.060547  z"/>
<path fill="#EBEBEA" opacity="1.000000" stroke="none" d=" M227.308197,680.059937   C227.482819,679.736755 227.958359,679.395447 228.748779,679.031799   C228.578796,679.353577 228.093948,679.697693 227.308197,680.059937  z"/>
<path fill="#31393C" opacity="1.000000" stroke="none" d=" M727.136658,664.627930   C727.030273,664.280762 726.923889,663.933533 726.702881,663.338013   C727.033691,663.501099 727.479126,663.912598 727.965881,664.659241   C728.007202,664.994446 727.981384,665.017578 727.775513,664.908691   C727.569641,664.799744 727.136658,664.627930 727.136658,664.627930  z"/>
<path fill="#EBEBEA" opacity="1.000000" stroke="none" d=" M221.303101,683.955322   C221.487488,683.667786 221.975220,683.339905 222.776062,683.026001   C222.594940,683.331665 222.100693,683.623352 221.303101,683.955322  z"/>
<path fill="#BFC0C0" opacity="1.000000" stroke="none" d=" M617.926025,635.667969   C617.498169,635.786377 616.918579,635.624329 616.182373,635.193848   C616.608582,635.079468 617.191406,635.233459 617.926025,635.667969  z"/>
<path fill="#31393C" opacity="1.000000" stroke="none" d=" M511.180908,535.193726   C511.632782,535.044922 512.247864,535.181335 513.037598,535.585205   C512.589478,535.728088 511.966766,535.603516 511.180908,535.193726  z"/>
<path fill="#FCFCFB" opacity="1.000000" stroke="none" d=" M498.017273,523.945801   C498.523438,524.297241 498.652344,524.615845 498.897644,525.436768   C498.556000,525.263733 498.097992,524.588379 498.017273,523.945801  z"/>
<path fill="#BFC0C0" opacity="1.000000" stroke="none" d=" M626.907593,641.708008   C626.505432,641.796814 625.920654,641.633362 625.181335,641.199463   C625.592834,641.104553 626.158997,641.280090 626.907593,641.708008  z"/>
<path fill="#BFC0C0" opacity="1.000000" stroke="none" d=" M623.922852,639.677002   C623.500549,639.788147 622.920776,639.625610 622.183716,639.195740   C622.606018,639.086731 623.185791,639.244995 623.922852,639.677002  z"/>
<path fill="#31393C" opacity="1.000000" stroke="none" d=" M594.185425,591.042969   C594.611694,590.997498 595.158691,591.259399 595.912354,591.745972   C595.514771,591.763916 594.910461,591.557129 594.185425,591.042969  z"/>
<path fill="#31393C" opacity="1.000000" stroke="none" d=" M580.286865,581.954102   C580.773865,581.846069 581.337769,582.075989 582.067749,582.566895   C581.610413,582.649231 580.987122,582.470642 580.286865,581.954102  z"/>
<path fill="#31393C" opacity="1.000000" stroke="none" d=" M695.261353,660.966125   C695.735840,660.879639 696.291565,661.125610 697.017639,661.628296   C696.572815,661.689575 695.957703,661.494080 695.261353,660.966125  z"/>
<path fill="#31393C" opacity="1.000000" stroke="none" d=" M725.942444,661.799683   C725.609924,661.645630 725.253235,661.157349 724.813660,660.371216   C725.126587,660.537415 725.522461,661.001465 725.942444,661.799683  z"/>
<path fill="#31393C" opacity="1.000000" stroke="none" d=" M576.196350,578.927856   C576.614990,578.917358 577.142578,579.221924 577.875732,579.753418   C577.489258,579.734619 576.897339,579.488770 576.196350,578.927856  z"/>
<path fill="#31393C" opacity="1.000000" stroke="none" d=" M692.272888,658.961426   C692.750244,658.868164 693.311584,659.106750 694.039795,659.606384   C693.590088,659.676025 692.973511,659.484680 692.272888,658.961426  z"/>
<path fill="#31393C" opacity="1.000000" stroke="none" d=" M724.877197,659.878662   C724.462280,659.755310 724.083801,659.286133 723.656982,658.509277   C724.043640,658.645386 724.478638,659.089050 724.877197,659.878662  z"/>
<path fill="#31393C" opacity="1.000000" stroke="none" d=" M728.832764,666.139648   C729.207153,666.552856 729.581482,666.966125 729.971558,667.696594   C729.987244,668.013794 729.961121,668.037842 729.772339,667.955017   C729.583618,667.872192 729.186829,667.760559 729.186829,667.760559   C729.186829,667.760559 729.129150,667.873047 729.107178,667.574890   C728.982056,666.918274 728.878906,666.559814 728.791199,666.186951   C728.806702,666.172546 728.832764,666.139648 728.832764,666.139648  z"/>
<path fill="#31393C" opacity="1.000000" stroke="none" d=" M601.251709,595.966553   C601.723511,595.883179 602.279419,596.131775 603.008240,596.635925   C602.566040,596.693787 601.950928,596.496155 601.251709,595.966553  z"/>
<path fill="#31393C" opacity="1.000000" stroke="none" d=" M721.934753,655.748657   C721.617493,655.599487 721.264648,655.124329 720.828674,654.361145   C721.130127,654.522888 721.514648,654.972778 721.934753,655.748657  z"/>
<path fill="#31393C" opacity="1.000000" stroke="none" d=" M598.273560,593.968140   C598.748962,593.874756 599.310059,594.111450 600.034241,594.611694   C599.584595,594.682800 598.971924,594.490540 598.273560,593.968140  z"/>
<path fill="#31393C" opacity="1.000000" stroke="none" d=" M731.927734,670.805237   C731.942078,671.123840 731.611511,670.913269 731.422729,670.860596   C731.233887,670.807983 731.218506,670.864807 731.153076,670.573120   C730.976929,669.928345 730.866211,669.575256 730.772217,669.206787   C730.788879,669.191345 730.817688,669.156677 730.817688,669.156677   C731.182861,669.600037 731.548096,670.043335 731.927734,670.805237  z"/>
<path fill="#31393C" opacity="1.000000" stroke="none" d=" M682.155029,652.258545   C682.580505,652.124390 683.166504,652.263916 683.942139,652.666748   C683.526367,652.797424 682.920898,652.664795 682.155029,652.258545  z"/>
<path fill="#31393C" opacity="1.000000" stroke="none" d=" M658.933716,559.779663   C658.589905,559.636963 658.231873,559.159485 657.789429,558.388611   C658.109863,558.545105 658.514709,558.994934 658.933716,559.779663  z"/>
<path fill="#31393C" opacity="1.000000" stroke="none" d=" M657.864014,557.892700   C657.441223,557.783020 657.066589,557.324463 656.635742,556.565796   C657.023743,556.691772 657.467896,557.117737 657.864014,557.892700  z"/>
<path fill="#31393C" opacity="1.000000" stroke="none" d=" M654.942993,553.809692   C654.602905,553.657349 654.242615,553.169006 653.798279,552.382324   C654.117065,552.547180 654.519958,553.010376 654.942993,553.809692  z"/>
<path fill="#31393C" opacity="1.000000" stroke="none" d=" M594.705444,461.080139   C594.460999,461.132721 594.200012,460.883514 593.855530,460.359131   C594.077698,460.315399 594.383301,460.546875 594.705444,461.080139  z"/>
<path fill="#ECECEB" opacity="1.000000" stroke="none" d=" M460.774017,301.004852   C460.884491,301.169739 460.752716,301.409515 460.479126,301.802399   C460.180481,301.619171 460.245331,301.327271 460.774017,301.004852  z"/>
<path fill="#BFC0C0" opacity="1.000000" stroke="none" d=" M622.066406,638.668945   C621.780029,638.777344 621.493347,638.592651 621.115967,638.162720   C621.372192,638.070251 621.719238,638.223083 622.066406,638.668945  z"/>
<path fill="#31393C" opacity="1.000000" stroke="none" d=" M598.689270,467.085999   C598.436584,467.140259 598.178772,466.890503 597.838257,466.367493   C598.065063,466.323456 598.374634,466.552704 598.689270,467.085999  z"/>
<path fill="#31393C" opacity="1.000000" stroke="none" d=" M516.171875,538.031006   C516.447998,537.906006 516.810547,538.062256 517.221436,538.514099   C516.932678,538.643921 516.595459,538.478027 516.171875,538.031006  z"/>
<path fill="#31393C" opacity="1.000000" stroke="none" d=" M522.168091,541.959351   C522.454468,541.868713 522.824951,542.063049 523.192871,542.576111   C522.877686,542.677979 522.564941,542.461121 522.168091,541.959351  z"/>
<path fill="#31393C" opacity="1.000000" stroke="none" d=" M528.159912,546.065186   C528.424194,545.941833 528.779541,546.096924 529.204102,546.538208   C528.932556,546.664124 528.591736,546.503906 528.159912,546.065186  z"/>
<path fill="#31393C" opacity="1.000000" stroke="none" d=" M653.836914,551.956482   C653.620056,552.011353 653.334534,551.791565 652.973511,551.301758   C653.188049,551.248413 653.478210,551.465149 653.836914,551.956482  z"/>
<path fill="#31393C" opacity="1.000000" stroke="none" d=" M656.812927,555.870850   C656.590820,555.989380 656.255920,555.834351 655.786438,555.384521   C656.001282,555.258972 656.350708,555.428162 656.812927,555.870850  z"/>
<path fill="#31393C" opacity="1.000000" stroke="none" d=" M579.171631,580.936279   C579.458435,580.856689 579.828552,581.063110 580.184570,581.592773   C579.865295,581.684814 579.560120,581.453491 579.171631,580.936279  z"/>
<path fill="#31393C" opacity="1.000000" stroke="none" d=" M582.184448,583.010864   C582.464050,582.883179 582.820984,583.045776 583.237793,583.499451   C582.952271,583.627441 582.606995,583.464294 582.184448,583.010864  z"/>
<path fill="#31393C" opacity="1.000000" stroke="none" d=" M593.136475,590.161194   C593.355713,590.070740 593.683044,590.236694 594.113403,590.664551   C593.892517,590.756897 593.568481,590.587219 593.136475,590.161194  z"/>
<path fill="#31393C" opacity="1.000000" stroke="none" d=" M597.171753,592.934998   C597.452881,592.852356 597.815979,593.059448 598.184387,593.584656   C597.877686,593.676758 597.565796,593.450745 597.171753,592.934998  z"/>
<path fill="#31393C" opacity="1.000000" stroke="none" d=" M600.161133,595.056274   C600.418213,594.944824 600.768860,595.110779 601.191711,595.562500   C600.927490,595.676697 600.591064,595.505249 600.161133,595.056274  z"/>
<path fill="#BFC0C0" opacity="1.000000" stroke="none" d=" M616.055298,634.665161   C615.778198,634.722656 615.494568,634.475586 615.129883,633.949341   C615.382202,633.900269 615.715454,634.130432 616.055298,634.665161  z"/>
<path fill="#EBEBEA" opacity="1.000000" stroke="none" d=" M226.273239,680.996460   C226.195572,680.792969 226.378296,680.493652 226.818848,680.105591   C226.895676,680.311462 226.714661,680.606079 226.273239,680.996460  z"/>
<path fill="#BFC0C0" opacity="1.000000" stroke="none" d=" M625.056030,640.674072   C624.779541,640.775208 624.494141,640.587097 624.114380,640.154541   C624.362427,640.068420 624.704712,640.226624 625.056030,640.674072  z"/>
<path fill="#BFC0C0" opacity="1.000000" stroke="none" d=" M631.009583,644.707764   C630.783264,644.781555 630.497131,644.587891 630.112793,644.149048   C630.326355,644.082642 630.638123,644.261475 631.009583,644.707764  z"/>
<path fill="#BFC0C0" opacity="1.000000" stroke="none" d=" M631.730713,645.015137   C631.675598,645.172729 631.407837,645.217590 631.088440,645.084961   C631.036743,644.907532 631.518066,644.902344 631.730713,645.015137  z"/>
<path fill="#31393C" opacity="1.000000" stroke="none" d=" M722.849365,656.952454   C722.639771,657.000061 722.355774,656.779907 722.006958,656.289673   C722.219727,656.241272 722.497253,656.462952 722.849365,656.952454  z"/>
<path fill="#31393C" opacity="1.000000" stroke="none" d=" M723.775391,657.973328   C723.538696,658.059021 723.235413,657.858826 722.836304,657.372986   C723.063293,657.287415 723.386047,657.487427 723.775391,657.973328  z"/>
<path fill="#31393C" opacity="1.000000" stroke="none" d=" M691.166870,657.982178   C691.440552,657.892700 691.803711,658.083252 692.181030,658.585693   C691.882263,658.685791 691.569275,658.473938 691.166870,657.982178  z"/>
<path fill="#31393C" opacity="1.000000" stroke="none" d=" M694.166626,660.046631   C694.429993,659.926819 694.781555,660.089783 695.207397,660.537781   C694.939392,660.658325 694.597107,660.493896 694.166626,660.046631  z"/>
<path fill="#31393C" opacity="1.000000" stroke="none" d=" M728.021240,664.984375   C728.281067,665.192993 728.526855,665.411560 728.802734,665.884888   C728.832764,666.139648 728.806702,666.172546 728.565796,666.065979   C728.210327,665.645447 728.095886,665.331482 727.981445,665.017578   C727.981384,665.017578 728.007202,664.994446 728.021240,664.984375  z"/>
<path fill="#31393C" opacity="1.000000" stroke="none" d=" M730.001587,668.003418   C730.270203,668.207214 730.524414,668.421326 730.798218,668.896057   C730.817688,669.156677 730.788879,669.191345 730.545532,669.087646   C730.188538,668.668518 730.074829,668.353210 729.961121,668.037842   C729.961121,668.037842 729.987244,668.013794 730.001587,668.003418  z"/>
<path fill="#31393C" opacity="1.000000" stroke="none" d=" M732.818359,671.966431   C732.594788,672.024353 732.312744,671.803528 731.958862,671.308960   C732.177979,671.252686 732.468933,671.470276 732.818359,671.966431  z"/>
<path fill="#31393C" opacity="1.000000" stroke="none" d=" M733.217896,672.876099   C733.040955,672.986938 732.787354,672.644104 732.719238,672.441895   C732.899048,672.414917 733.146973,672.590027 733.217896,672.876099  z"/>
<path fill="#AFB1B3" opacity="1.000000" stroke="none" d=" M482.947693,713.284302   C462.295959,713.626099 441.617035,713.580322 420.517639,713.542969   C421.396179,712.701416 422.688751,711.122803 423.995117,711.111328   C442.313873,710.949951 460.634796,710.963135 478.954193,711.084351   C480.280212,711.093079 481.598572,712.265320 482.947693,713.284302  z"/>
<path fill="#AFB1B3" opacity="1.000000" stroke="none" d=" M637.066895,713.362244   C630.639160,713.685181 624.292358,713.722534 617.351257,713.363831   C614.496765,713.186462 612.236511,713.405151 609.976257,713.623840   C604.965576,713.679871 599.954956,713.735901 594.384644,713.429565   C592.542236,713.266785 591.259460,713.466370 589.976746,713.665894   C589.236816,713.700439 588.496826,713.734985 587.391724,713.699646   C588.445496,712.753418 589.855957,711.131470 591.284973,711.114929   C607.048645,710.933044 622.815247,711.000671 639.109497,711.000671   C638.277466,711.881165 637.712646,712.478943 637.066895,713.362244  z"/>
<path fill="#AFB1B3" opacity="1.000000" stroke="none" d=" M579.972107,713.585083   C567.553528,713.604248 555.134888,713.623352 542.311829,713.549622   C543.105530,712.641357 544.293579,711.135071 545.503479,711.117432   C557.639160,710.939819 569.778992,710.963379 581.916138,711.085083   C582.920471,711.095154 583.913452,712.236389 584.942139,713.235046   C584.538879,713.658936 584.105286,713.699829 583.266113,713.402954   C581.897766,713.238464 580.934937,713.411804 579.972107,713.585083  z"/>
<path fill="#AFB1B3" opacity="1.000000" stroke="none" d=" M263.972107,713.585022   C260.290619,713.645081 256.609100,713.705078 252.477646,713.666626   C252.972351,712.715698 253.907440,711.133789 254.863129,711.121277   C267.355591,710.957581 279.851318,710.981140 292.345001,711.094116   C293.202942,711.101868 294.051117,712.193787 294.937378,713.157959   C292.613525,713.588745 290.256134,713.643005 287.394897,713.382935   C286.250732,713.223633 285.610382,713.378723 284.970062,713.533813   C278.880554,713.574402 272.791077,713.614990 266.322693,713.362427   C265.286560,713.241150 264.629333,713.413086 263.972107,713.585022  z"/>
<path fill="#AFB1B3" opacity="1.000000" stroke="none" d=" M667.973877,713.652100   C667.539551,713.694275 667.105286,713.736450 666.266846,713.438232   C664.899658,713.270386 663.936584,713.442871 662.973450,713.615356   C659.625977,713.661682 656.278503,713.707947 652.478943,713.686768   C653.106750,712.747925 654.174255,711.137268 655.268372,711.119019   C666.475952,710.932373 677.688293,710.958679 688.897644,711.081360   C689.906677,711.092407 690.903748,712.192566 691.938843,713.164673   C686.297363,713.611206 680.623535,713.680115 674.398560,713.402222   C671.889648,713.254333 669.931763,713.453186 667.973877,713.652100  z"/>
<path fill="#AFB1B3" opacity="1.000000" stroke="none" d=" M351.942749,713.219788   C340.965118,713.642578 329.957184,713.682861 318.488586,713.642212   C318.957977,712.711304 319.874390,711.140686 320.820221,711.122803   C330.358490,710.941895 339.902100,710.970398 349.442200,711.096375   C350.273132,711.107361 351.089417,712.230591 351.942749,713.219788  z"/>
<path fill="#AFB1B3" opacity="1.000000" stroke="none" d=" M397.077209,713.288940   C391.308167,713.637390 385.626434,713.708252 379.480042,713.731140   C378.695007,712.951721 378.374695,712.220215 377.947388,711.244446   C384.972778,711.244446 391.893951,711.244446 399.080475,711.244446   C398.287445,711.975769 397.726013,712.493530 397.077209,713.288940  z"/>
<path fill="#AFB1B3" opacity="1.000000" stroke="none" d=" M524.970764,713.564697   C523.232117,713.525146 521.493469,713.485657 519.392456,713.373230   C519.294800,712.544800 519.555054,711.132080 519.824890,711.130310   C525.848755,711.089355 531.874390,711.178040 537.896484,711.354492   C538.249023,711.364746 538.573914,712.321594 538.942017,713.219910   C535.292297,713.633423 531.612366,713.664856 527.410950,713.384216   C526.249939,713.236267 525.610352,713.400513 524.970764,713.564697  z"/>
<path fill="#AFB1B3" opacity="1.000000" stroke="none" d=" M416.060242,713.334839   C412.297882,713.633301 408.609650,713.649353 404.465454,713.597961   C403.683960,712.825195 403.358398,712.119812 402.931610,711.195129   C407.684265,711.195129 412.289398,711.195129 417.088898,711.195129   C416.692505,711.966431 416.413452,712.509460 416.060242,713.334839  z"/>
<path fill="#AFB1B3" opacity="1.000000" stroke="none" d=" M314.940430,713.203491   C310.961945,713.649048 306.951538,713.715576 302.483246,713.722534   C302.094788,713.181519 301.986816,712.523621 302.262024,712.247009   C304.332581,710.165588 312.418884,710.574341 314.940430,713.203491  z"/>
<path fill="#AFB1B3" opacity="1.000000" stroke="none" d=" M700.952454,713.309204   C698.945618,713.698364 696.915833,713.716370 694.456543,713.660645   C695.805359,710.181702 698.033386,709.972229 700.952454,713.309204  z"/>
<path fill="#AFB1B3" opacity="1.000000" stroke="none" d=" M650.025879,713.349487   C648.924194,713.685547 647.867126,713.722290 646.418274,713.691162   C646.875061,712.753967 647.723755,711.884460 648.572388,711.015015   C649.071777,711.693359 649.571106,712.371765 650.025879,713.349487  z"/>
<path fill="#AFB1B3" opacity="1.000000" stroke="none" d=" M297.463501,711.719971   C298.039917,711.369263 298.552887,711.241943 299.065857,711.114624   C299.097992,711.390808 299.130157,711.667053 299.162323,711.943298   C298.574890,711.943298 297.987457,711.943298 297.463501,711.719971  z"/>
<path fill="#AFB1B3" opacity="1.000000" stroke="none" d=" M642.771301,711.582947   C642.824951,711.406616 642.951721,711.347717 643.078430,711.288818   C643.000427,711.425964 642.922424,711.563110 642.771301,711.582947  z"/>
<path fill="#ECECEB" opacity="1.000000" stroke="none" d=" M727.775513,664.908691   C728.095886,665.331482 728.210327,665.645447 728.550293,666.080383   C728.878906,666.559814 728.982056,666.918274 729.163696,667.546509   C728.523315,667.012817 727.804565,666.209412 727.111206,665.016968   C727.136658,664.627930 727.569641,664.799744 727.775513,664.908691  z"/>
<path fill="#ECECEB" opacity="1.000000" stroke="none" d=" M729.772339,667.955017   C730.074829,668.353210 730.188538,668.668518 730.528870,669.103027   C730.866211,669.575256 730.976929,669.928345 731.164429,670.549072   C730.529785,670.050110 729.818237,669.283447 729.146729,668.138672   C729.186829,667.760559 729.583618,667.872192 729.772339,667.955017  z"/>
<path fill="#A5A8A9" opacity="1.000000" stroke="none" d=" M610.411011,713.704102   C612.236511,713.405151 614.496765,713.186462 616.889893,713.293213   C614.963806,713.673889 612.904785,713.729065 610.411011,713.704102  z"/>
<path fill="#A5A8A9" opacity="1.000000" stroke="none" d=" M668.400757,713.734253   C669.931763,713.453186 671.889648,713.254333 673.936646,713.341309   C672.293091,713.690186 670.560364,713.753296 668.400757,713.734253  z"/>
<path fill="#A5A8A9" opacity="1.000000" stroke="none" d=" M590.376709,713.747131   C591.259460,713.466370 592.542236,713.266785 593.923340,713.366516   C592.940063,713.720032 591.858337,713.774170 590.376709,713.747131  z"/>
<path fill="#A5A8A9" opacity="1.000000" stroke="none" d=" M663.349365,713.702026   C663.936584,713.442871 664.899658,713.270386 665.943115,713.381775   C665.257446,713.706726 664.491333,713.747742 663.349365,713.702026  z"/>
<path fill="#A5A8A9" opacity="1.000000" stroke="none" d=" M580.347900,713.679077   C580.934937,713.411804 581.897766,713.238464 582.943115,713.345032   C582.258362,713.674316 581.491028,713.723694 580.347900,713.679077  z"/>
<path fill="#A5A8A9" opacity="1.000000" stroke="none" d=" M525.311279,713.645264   C525.610352,713.400513 526.249939,713.236267 526.959229,713.306885   C526.569946,713.603027 526.110901,713.664368 525.311279,713.645264  z"/>
<path fill="#A5A8A9" opacity="1.000000" stroke="none" d=" M285.309570,713.621277   C285.610382,713.378723 286.250732,713.223633 286.960144,713.301819   C286.569183,713.593018 286.109131,713.650879 285.309570,713.621277  z"/>
<path fill="#A5A8A9" opacity="1.000000" stroke="none" d=" M264.235931,713.673157   C264.629333,713.413086 265.286560,713.241150 266.039825,713.357239   C265.590485,713.683899 265.045135,713.722595 264.235931,713.673157  z"/>
</svg>